<?xml version="1.0" encoding="UTF-8"?>
<svg id="object" xmlns="http://www.w3.org/2000/svg" version="1.1" viewBox="0 0 2727.8 1094.3">
  <!-- Generator: Adobe Illustrator 30.2.1, SVG Export Plug-In . SVG Version: 2.1.1 Build 1)  -->
  <defs>
    <linearGradient id="ncGradient" x1="0%" y1="0%" x2="100%" y2="100%">
      <stop offset="0%" stop-color="#2a6bec"/>
      <stop offset="50%" stop-color="#9956b9"/>
      <stop offset="100%" stop-color="#eb4885"/>
    </linearGradient>
    <style>
      .st0 {
        fill: url(#ncGradient);
      }
    </style>
  </defs>
  <g id="g4150">
    <g id="use159">
      <g id="state_outline">
        <path id="_x31_909" class="st0" d="M842,41.7l26,1,29.3,3.3,35.1,3.3,5.9.3,8,.4,13.3.7,61.6,3.1,46.5,2.2h3.9c0,.1,10.7.7,10.7.7l7.5.2,55,1.2,12,.7,50.8,3h.4s47.8,2.9,47.8,2.9h12.4c0,.1,54,.7,54,.7h7.1s2.4,0,2.4,0l61.3.5,29.5.5,32.8.5,26.3.3h1.4s12.1-.3,12.1-.3l21.1-.5,16.6.2h6.2c0,0,30.7-.5,30.7-.5l10.5-.2,11.7-.2,49.6-1h52.4c0,0,9.7,0,9.7,0h10.9s43.3,0,43.3,0h2.7s7.3,0,7.3,0h9c0,0,3,0,3,0h4.8c0,0,9.5-.3,9.5-.3h1.6s.5,0,.5,0h13.9c0,0,1.4,0,1.4,0h2.5c0-.1,10.7-.7,10.7-.7l3.4-.2h1.9c0,0,4.9-.3,4.9-.3l5.8-.2,23.6-.5,29.5-.7,22.6-.3,41.1-.5h2.5s40-.7,40-.7l19.4-.4,64-1.4,53.5-1,9.2-.2,34.3-.6,29.3-.6,42-.8.3-2.6,21.5-.5,64.2-1.5,15.4-.4,6.6-.2h2s1.2,0,1.2,0h.3s14.8-.6,14.8-.6h4.3c0,0,17-.7,17-.7l12-.4,19.5-.6,6.2-.2,15.1-.5,7.9-.3,27.3-1,25.6-1v1.3c0,0,.8,1.2.8,1.2l1.4,2-.5,1,.3,1.2-1,1,.2.8,1.5-.2.9,1-.4,1.3v1.3l-.9-.3-1.7,1.3-.9-.7-.7-2-.8-.5-.9-.8-.7,1,1.3,2-1,.3-2.4,1.3-1.7-2-1.9-.2-1.9.8-.7,1.5-1.6.7.9.5.5.8-1.2,2v1.5l3.9.9,2.2-.5,1.5-.7,2.2-1.5h1.7s.7.7.7.7l1.5,3.2,1.2,2.3-.2,1.2.7,1.5,1.2,2.5,1.5,1.8.8,3.3,1,2,1,1.8,1,.9,1.4.8,1.7.7,2.4,1,3.2.5,1.9-1.7.8.2.2,1.3,1.7,2.8.3,2,1,1.9-.8.3-3.7-2.7-.8-1.9-.9-.2h-1.5l-3.4.5-.7.8.2,1.2,1.9,1,1,2.2v1l-.7.8.9,1h1.2s1.5,1.7,1.5,1.7l3,3.3,1,1.5,1.7.8,1.7,1.5.5,3.2,1.9,2.5,1.9.3,1.2-.3-.2-2.3-1.4-1.9-.8-1.4-.3-2.5-.5-2.2.4-1h.8l.9,1.7,1.4.7.8,1,1.4-.2.7-1.2-.5-1.2-.3-.8v-1.5l-.7-.5-.9-.5v-.8l.7-1-.2-.2-.7-.2-1.5.2-.5-.9.5-1.3,1.5-2.2,1-.3-.2-1.3-1-.9-1.9.3-.7-.7.7-.7,2.1-.2,2,.5.7.8h1l.7.8-.2,1.9.7,2.2.2,1.4-.5,3.1,1.2,2.5,1,2.5v2s-2.2,3.3-2.2,3.3l-.5,2.2-1.2,1.2.9.7,2.2,1.4,1,2,1.7,2.5,1.2,4.2,2.2,2.7,1.5,2,1.5,5,.2.7.8,3.3,1,2.2.7,1.5,1.2.7,2.2.7.2,1.7-1.7,2.5.3,1.8,1.7,2,.7,2,.3,1-.5,2.5,1.5,3,1.5,4.2,1.7,1.5,1.5,1.7,1.2,2.5,1.8,3.7.5,4.3.3,2.7.7,1.8.7,1.5.3,1.5,1.3.8h1.4s.9.4.9.4l.2,2.5-1.1,3.8,1.7.3,1.4,1,2,2.2v3.6c.1,0,.8,1.2.8,1.2l.8.8,2.2.2.5,2-.7.3-.3,1-.4,1.8-.2,1.9.8,1.8,1.4,1,1.5,2.8,1.7,1.8-1.9.8-.9,1.7-1.4-.2-2.3-1.5-4-3.2-3-1.7-4.6-2.5-1.7-2.3-2.2-3.2-2.2-2.7-.3-3.8-.7-2.6.3-2.3.2-2.3.2-2-.3-1.8-.3-1.5-1.4-1.7-1-1.9-1.4-1.5-.8-1-.5-.8-2-2.5-1-.3-.7-.8-1-.7-.7-.5-.5-1.5.2-1-.5-.5-1.4.5-.8-.8-.5-1.5.2-1.7-1-1.2-.4-.2-.5-.5-.3-.7-.3-1.3-.3-2.2-.3-1,.5-1.5,1-.2.3-1.2-.7-.5-2.1.5h-.9s-1.3-.9-1.3-.9l-1.4.3-.7-1-.8-1-1.9-1.2-.3-1.5.3-1.3.4-1.3-.5-1.4.2-.8v-.8l-.3-1.8.7-.7,1.2-1.2,1.4-1,.4-.3-1-.5-.5-1v-1.2l-1,.3-1.7,1.8h-1.9c0,.1-2.1.8-2.1.8l-1.3-1.3-.5-3.5v-3.5c-.1,0-1.5-1.7-1.5-1.7l-2.1,1.1-1.2.7-2.2.3-2-1-.5-1.4-.8-2.6-1.7-.5.5,1.9v1.2s-1,.3-1,.3l-.2.7h.7l.3,1.7.8,1,1,1,1.5.2,1.4.5,2-.7,1.7.2.7.9-1.2.8-2.5.3-1.9,1.8-.7,2.2h.5l1-1.2,1.7-1.2.7-.7h1.5l1,2,1,1.7,2,1.2,2.1-.3h.8l.3,1.2-.3,1.9h-1.9c0,.1-1.4-.5-1.4-.5l-.8.8,1,1.2-1.2,2.2.5,2.2,1.2,2.5,1.7,1v1.2l-2.1.5-1.4-.3-.2,1.8,1.5.4,2.4-.5.5.7,1,.9,1.2,1.8,1.3,2.8-.7,2v1.4c.1,0-.7,3-.7,3l-1.5,1.7-1.4-.8-.7-2-1.7-1.3-1.4,1.2-.8-1-.5-1.5-2-1-.7.3.8,1.4v2.3l-.9,2-1.5.8-.4,1,1,.2,2.5-1.7.7-1.2,2.4-.2h1l.5,1.5,1.2,1.5h1.5s1.2,1.5,1.2,1.5l-.2,1.3-.7,1.4.7.2,1-.5.3-.8.7-.8.7.5,1,1.2.5,2,1.9,1.3.7,1-.7.7.7.3,1.4-1h1.9l2.2,1,1,1.8v1h-2.4c0,.1-3.7-.2-3.7-.2l-5.1-1.4-6.1-1.4-6.6-.9-2.9-1.5-4.4-1.5-1.9-1.2-.7-2.3-1-2.2-1.4-1.3-3.2-1.7-.3-.9-.7-.8-.2-.8-.5-1.7-1.2-3.1-1.3-1-1.6-.2-1.2-.7-2.1-.2-2.9.2-.2-1.4-.8-2-.8-1.4-1.9-1-1.7-.8-1.2-1-.7-2-.3-1.7-.4-.8-1.2-1-.9-.4-.5-.2-.2-.7-2.4-2-1.5-1-.2-.8-.9-1-.7-.3-1.2,1-1.7.2-4.6-.5-2.2-.4-.5-2-1.7-2-1.5.2-2.4.5-2.4,1.7-.8.2-1.9-.7-1-1.2.9-.7.8-.2.5-.7-.8-4.3-1.5,1.5.5,1.5-.2,1-1.5-.3-2.2,1.8-.7,1.8.9.9h1.9l1.4.7.8,1.5.5.8,1.2.2,2.1-.3.5.3.3,1.8,1.2,2.2,2.3,1.9,1,1.7,1.7.9,2.9-.5,1.7.2,2.2,1,2,2,1.2,2.2.2,2.5,1.7,2.2,1.9,2,.7,2.5-.5,1.3-1.5-1-1.2-.2-1.2.2-1.5-1-1.2.8-2.2,1.5-.7,1.5.4,1,1.5.3,1.2-1.5-.2-.7,1.9-.3,1.9.7,1.5,1.3,1.2.9,1.2-.2,1-.8h1.2l2.4.7,2.7,1.2,2.5,1.4,2.5,1.9,1,1.8-.7,2.3-.9.5-2.2,1.8,1.2.7,1.5,1,.9-.5.9-2,.5,1,.5,1.7-.2,1.8,1.7,1.2,2.2,4.3.5,1.2-.5,2.3-1.7,1.2-3.6,1.2-1.4.5-1.7-.2-1.2.8-.7.7-1,.2-1.7-1-.9-.5h-.8l-1-.5v-1.5l-.5-.5-2.2,1.3-1.7.5-1-.5.4-2-1.7-2.6-1.4-.2-2.1,1.5-1.2-1.3-2.7-.2.8,1.5.9.7.5,1.2,1.4.4,1.5-.8,1,.8-.9,1.2.5,1.9,2,1.2,2.9.2.9.2.8.7-2.2.5h-2.3l-2.2-.2-.7.3-.2.7-1.5-.2-1,.3-2.9,1.2-.9.8-1.7-.5-1.9-.2-1.6-.2h-1.4s-1.7-1.9-1.7-1.9l-3.2-1.7-1.3-1.4-1.2-1.7-1.2-2-1.4-1.2-.7-.9-1.3-.5-1.4-2.3-.2-1.3.5-.7.9-1.7-.7-2.2-.9-1.2-.9,2.2.3,1-1.2.7-1.2-.5h-2.2l.2-2.7v-1.2c-.1,0-1.3-.9-1.3-.9h-2.2l-1.9-.3-1-1.5v-1.7c-.1,0-1.7-.7-1.7-.7l-.3-2.2-1-.7-.8-1.4-.5-.8-1-1.7-.9.8-.7,1.2.7,1.3,1,.8-.2,1,1.2.5-.5,1.3,1,1.2.8.5.5.8-.5,1,.5,1.7v1.3l-1.7.2-1.9.6-1.2,1h2c0-.1,1.2.5,1.2.5l1-.3,1.9-1,1.2.5.3,1.8,1.7,1,1,1.4,1.7.7,2.5,1.4.3,1.2,1.2,1.5,1.4,1.7v1.2l.5,2.6,1,1.4,1.2.8.3,2.2,1.9,1,1.5,1.5,2.2.5.8,1,2,1.7,2.2.5-.5.7-5,1.8-.7,1.4h-1c0,.1-2.2-.5-2.2-.5l-.8-.8-1.4.7-2.1-.2-1.2-1-1.5-1-.7.8h-1.2l-1.2-.8-2.2-.7-2.9-1.2-2.9-1.2-.8-1.5-2.4-1.5-1.7-.2h-2.1l-.8-1-.9-.2-.5-.7-1-.7-1.9-1.4-2,.7-1.9-1.2-.3-.9v-.8l-.9.3-1.5-.2.2.5-1.2.7-1.4-.7-1.9-.2-1.9,1h-1.9l-.7-1-1.2-.7-.7-1.8-.8-1.9-1.7-1.5-.2-1.3-.7-1.2-.3-1,.2-1,.4-.8-.3-.8-.9.8-.4,1.5-1.5.2-1-1-2.5-1.9-1.5-.9-1.2-1h-1.7l-1.4-1.7-1.3-1.7-1-.7-1.5.2h-.5l.2-.8-.3-.3-2.1,1.2-1.4-.7.2-1,.7-.8-.5-.7-.9.5-1.7,2.6.7.7-.4,2.5,1.5-.5.7-.2.3,1.3,1.2,1.2,2.9,1.7.5,1,.2,1,1,.3.5,1.7,1.5.8,1,.2,2.8,1.9,3.2,2.7,1.7,1,1.4,1.8.7,1.5,1.9,1,1,.9,1,1.8,1,1,2.2,1.8,2.1-1.3,2.4-.3h2.5l.8.3.3,1.5,1,1.2.5.2.3,1,1.2.3,2.2,1.4,2.5.5,1.7.7,2.4-.3,1,.3-.2,1.3-.5,1.2-1.4.8-2.4.5-1.4,1-.2.8h-2.2l-1.7-1.2-2.5.3-1.4.2-1,.5-1.2-.2-4.1.8h-1.2l-2.4,1.5h-1.2l-1.4-.2-2.2.7-1.4.5-.8-1.7-1-2.2-.3-.2-1.4.7-.5-2-.5-.8-.8-3.7-.7-.7-1,1.7.8,2.7.3,2.3-1.4.3-.3.7,1.7,1,2.4.3.3.8-.9,1.2-3.9-.2-2.2-.5-1.9.5-1-1.5h-.7c0,.1-1,0-1,0l-1.2-1.7-2.3-1.4-2.4.2-1.4-1-1.9.7-1.2,1.8.3.7,1.7-1.2,1,.7.8,1,1.9-.3,2,1,1.4,2.3h1.9l1,1.5,2.1-.5,1.9.2,1.5,1.4,1.6-.8,1.7-.2,2,.5.3.7-.7,1-1.7.3-3.1,3-2.7,3.3-1.6,1-2.7,2.8-1.6,3.1v.8l-1,1.2-.7.5h-.7s-1.2.5-1.2.5l-4.9,1.3-4.6,2-2.4,1.5-.5,1.3-.7-.7-1.4.2-4.2-.5-4.1-.7-3.9.3-1.7.3-3,.5-1.9-1.5-3.4-4.5-2.7-3.8v-1.5s-.5-2.2-.5-2.2l-.7-2.8-.5-.8-1-.2-.9-1-1.2.2-1.2.5-.3-.3-.7-1h-1.7c0,.1-.7-.4-.7-.4h-.8l-.9-.8h-.5l-.9.3.5.8,1.4,1,.8,1,1.7-.2.3.5v.5l.8.7,1.5-.3.4.7-1.7,2.8-3.1,2.5-1,.5-3,.3-1.7-.2-1.7-.7-1.2-1.4-3-.5-1-1-2.5-3.8-1.9-3.3v-.7l-.2-1.3v-1.3s.9-1,.9-1v-.8s-1.3-3.8-1.3-3.8l1.4-1.7-.2-3.5.2-1.7v-.7h-1l-1.5.8-2.4-.4-.8-1.7-.7-2.7-.7-2.2-.2-1v-1.3l-.7-2-1.2-2-.9-.5-.3-.7-.7-2.2v-3.3s.6-4.2.6-4.2l.4-6.8-.2-1.3v-1s.9-2.3.9-2.3v-2.6l1.4-3.2,1.7-3,1.4-1.5.7-.2,1-.8.2-2.5.4-1,1.2-2.3,1.2-1.7,2.1-2.6,1.1-2.8-.7-1.3.2-1,.2-1.9-1-.8-.5-2.2-.9-1.2-.3-1.5.2-.3,1-.3.5-.5h-1.9s-.5-.5-.5-.5l-.5-.3-.3.3-.7.5-2.2-2.3-1.2-.8-.7-2.2-1.5-.7.7,1.7-.2,1.5.7.3.3.7-.3.7h-.7l-1-.8-2.2-1.7-1.5-2.3-2.5-1.4-1-1-1.3-2.8-2.5-2.3-2.4-3-1.3-1.7-1.2-.8h-1.9s-1.5-1.7-1.5-1.7l-1.2-1.4-2.5-.3-3,1-3.4-.7-3.5-.2-.7-.7-2.3-2-2.5-1.2-3-.2-3-1-4.7-1.5h-1l-1.5.2-2.1-1.7-1.2-.8h-2.4s-2.2-.4-2.2-.4l-2-.9h-1.5l1,1.7,2.4,1,2.9.2,1.4-.2,3.2,2.3h3l5.4,2.5,2.2.7,1-.3,2.5.9,2.7,2.3,3.2.5,3.9,1,3,.9,1.4-.7,1.4-.8,1.7.2.9.9,1.2,1.5,1.7.9h.5l.9.5,1.2,2.7,3.4,3.7,1.5,2.7,2.5,1.4,2,1.5.8,2.5,1.5,1.7,2.5,2,2.9,1.4v1.7c.1,0,.7,1.2.7,1.2l-.5.7.3,2.5.5,2.2-.7.8-1.5,1.5-.9,2v2c.1,0-1.2,1.3-1.2,1.3l-2.4,2.3-.5,1.3-.2.5.5,1.3-.4,1.2-.2,1.2-1-.5-1.5-1.7-1.4,1-1.2,3.1-.5.5v2.7l-.5,1.5-1.2,1-.4,2.3.5,1.7.7.8-1.6,2-.4,2.8.5,4.3.5,1.2-.5,1.4-.4,3.8,1,5.2,1,3.8,1.5,1.7,1.5,3.2,2.3,5.2,1.7,2.3.2,1.9-.9,4.8v3.2l1.3,3.8,2.3,3.3,1.2,1.7,2.5.8-.3,2,.7,2,.3,2.7.7,4.8-.9,1-1.9,1.3,1.2,1,2.5-1.5,1.4-.8,2.4.3.9,1.2.5,1.2.3,3.2v1l-.9.7-.5,1.3-1.4,1-.9,1.5-.7.3-.7.8-2.7,1.2-2.4,2.2-1.6,2.3-.7,1.2-.2.8.2,1.2-.2.7-.2.5.3,1-.4,1.2-2.2,1.2-.7.5.5,1.4,1.9-.2,2.2-.7,2.2-2,.7.5.4.7.5-1.5.4-1.2,1.4.2,1.4.5v2.6s.3.7.3.7l1.2-1.7.2-1.3.7-.3.9.5,1.9.5.7,1.2,1.9.2.8.9,2.2.5,1.4-.5,1.7-.6,2.7-.5,2.1-.3,2.9.2.5-.5,1.4.5h1l1.9-.2.5.2.9-1v-.5l3.6-.8,4.1-.2h1.5c0-.1.7-.3.7-.3l.3.2.3.3.9-.3h1.7l1.5.4,2.9-.5,3.6-.7h.9c0-.1,1-.6,1-.6l1.2-.2.8-.3.7-.5,2-.5,3.2-1.8,3.4-2.5.4-.5.7.5h2.4s2.7-1.1,2.7-1.1l2.1-1.3,1.5-1.2h.9l1-.7,1-.3.7-.5,1,.2.9-.3.7-.5h.7l1.5-1,.7-.3.9-.7.5.3,1.5-.2,1.7-.7,1.6-1,1.7-.3.7.2.5.5,1.7.7,2,2.2.7,1v.8l-.2.5.3.8,1.4,1.9,1,1.2.5.7h-.7l-1.4,1-1.2.8.7.2.5.7.9.3.3.7,1,.3.2,1-1.2.5-.7,1-.9.3-1.2.3.9.7h1l.5.7h.8l1.2-1.5,1-.2.3,1h.4s.5-1.3.5-1.3l1.2-.5,1,.2,1-.8v-.7l.9-.7,2.5.7,2.3.5,1.9-.3.7.5.9.5,1.9.5h.7l-.2.8-.3.7-.4,1.2,1,.7,1.4.3,1.5-.8,1-.2.7.3.7-.5,1.5-.5.7.2,1,1-.3.7.2,1.2.7.9,1.9-.2.5-.5,1.4.3,2.1-1.2h.3l1.2.7,1.2.2-1-2-1.4-.5-1.7.2-1.5,1.2-.9.2-.2-.5.3-.7-.5-1.3-1.5-1.4-.5-.2-.3-1.2-1.4-.3-.7-.2-.7.3-1.2-1-1,.3-2.4-.9-.7-.8-.9-.5.2-1,.5-.7,1.2-.7.2-.5.9-.5.9-.8,1.7-1.2,1.9-1.3v-.5l.5-.3,1.6-.7,1.7-.5,1-.7.3-.8h.7l2.5-.5,3.7-1.1,1.2-.8v-.3l.5-.3,1.2.3,2.5-.7,1.9-.5.9-.8.7-.5h1.2s.9-.5.9-.5l1-.2.7-.2.2-.2,1.3.3,1.9-.5,1.4-.7,1,.5,1.4-.3.7-.3,1.4-1.5.8-.2,1.6-.5,1.4.3,1.5.2,1-.3,1-.7,1,.2,2.2,1.2,2.5.7,1.6-.7h1l.9-.3,1.7-.2,1,.3.5-.3h2.1l2.7.2,3.7.5,1.5-.3.2-.5h.7l1.7.3,1.2-.3,1,.5,2.3,1.2,2.5,1.5,2.3,1.9,1,.8,1.7.9,1,.8.5.8.7.5,1.2,1.8.9,1.2-.7,2v1.3s-.5.7-.5.7l-1-.5h-.7l-.4.5-.3.5-.8-.5-.7.7.3.8-.5.3-1.2-1.2-.7-1-1.5-.7-.9-1-1.5-1h-1.7l-.3-.5v-.8l-1.4.7-.2,1-.7.5.7,1,.2.5-.7,2.3-.9,1,.2,1.5,1.7,1h.9l.8.7.9.7-.5.7-1.5.2-1.2,1-.9,1h-1.5s-.3-.9-.3-.9l.2-1-.5-.8-1.2-.9-1.2-.8-.9-.2-1-1.2-1.4-.8-1,.5-.7.5-.7-1.9-1.3-1.8-1.4-1h-1.2l-1,1-.7.5-.8-.3,1,1.2,1.7-1.2,1,.5,1.2,1.7.3,1.4v1l.8.5h1.7l1.5,1.4.9.8.2,1.4,1.7.7,1,1.5,1.5,1.4,1,.2.7.7-.7.7.2,1,1.5.5.9-1.8.5-.7.4-1.2,2.5-1.3,2.2-1.8-.2-1,.9-1.7,1.5,1.5,1.7.7,1.5-.7,1.2-2.6,2.5,3.2v1s-.9,1-.9,1l-.5.2-.7,1.9-1.2.2-1.4.8.2,1.2v1.5l-.4.3-1,.7-1.2,2-1.4,2.8-.5,2.5.2,1.3v.9s-.2,1.5-.2,1.5l.2.7-.7.8-.5-.2-.9,1.2-2.1,1.5-1.2-.2h-1l-.9-1.5-.7-.2-.4.5-.8.7-.7-.8-1,.2-.5.2-.7-.7h-1l-.7.3-.7-.8v-.7l-.3-.3-.7-.2-.9.3.9-1.5.5-1-1.3-1.7.2,1.4.3.8-.9.7-.7,1.2.7,1.2.9.2.3,1.7.9-.2.5.3.3.5h.7l1.3,1.3,1.2-.5.3.3.4.7,1.4-.5.2.3.8,1.3h1.7c0-.1.5.5.5.5l.5,1v1.8s-.2,1.7-.2,1.7l-1,.8.2,2,.2.8.8.5-.3.7.5,2.3.8.9,1.2,1.2-.2.8.2.5,1.4,1v1l-.2,1,.5.5-1.4,1.7.3.7v.8s.1.5.1.5l.2.3.2.3v1.4s-.2,1.7-.2,1.7l.3,1v2s-.5,1.5-.5,1.5l-.7-.2h-1.2l-1,1.2-.5-1.4.4-1.2h.3l.9-1.7.4-1.5-.9-.4-1.5,1.3-.2.7-.2.5-.5.5-.4,1.3.3.8.2.7-.7.2-.5-1.2-.5-.7-.5.8h-.7l-.7.3-.5-1.2-.5-.5-.5-1-.3-1-.5-1.5-.9-.8-.3-.7-.7.3-1.2-.8-.5-.5-.3-1.3-.2-.9.2-.7-.8-.7-.9-.2-1.2.7h-.5l-1.2.7-.5.5h-.3l-.4,1.2-.7.2.3.5.5.3.3.8-.7,1.8-.2,1.5.7,1.2.7.8,1,.4.4-.5.7.3.5.3,1-.7.9-.5,1.2.7.3.5.2.8.7.3.4-.2.7.3,1-.3,1,.7,1,.7.7,1,.2,1,.9.8,1.2-.8.2-1.2.9-.7.2-.5h.3l.2.7.5.2.7-.2.5-1.3.9-.5.3.8v1.5s.7.4.7.4l.8,1.3.5.8.2,1,.5.8.7.5-.4,1-.3,1.2.5,1.2v.7l-.3.3-.7,1.2v1.5l-.4,1.5-.7,1.2-.2.5-1.2,1,.5,2-.2,1.4.4.3.5.2-.5,1.2.2,1.3.7.2.3-.9h.9c0-.1.7-1.2.7-1.2l.5.5v.5l1,.7.9-.2.5,1.2v1.2l1.3,1.5-.3,2.7-.9,4h-1.4c0,.1-1.7-1-1.7-1l-2.2-1.4-1.7-.8-1.7.5-.9,1-2-.9h-2.2l-1.2.7-.8.5-.9-.4-.5-1.5-1-.3-1.2.2-1.6-.4-1.7.8v-.8l.7-1.7.4-1.4-1.4-.8-1.2-.5-2.7,1.3-.3-.9-.7-1.5-1.4-.3.3,2.2,1,1.7,1.2,1,1.2-.8.7-.3.3.2-.7,2.2-.2,1.3.5.7,1,1,1.2.5.5.5.7-.5,1.7-.2.3.8.3,1.2.7.5,1,1,.7.2,1,.5,1.9-.7.7-1.2v-1l.9.2-.2.7.5,1.2.7.2.9-.3h.5l.9.5,1,.2.9-.5v-.8l.5-.5,1.2-1.3.9.3,1.3,1.7.3,1,.2.3.9.8h1s-.7,1.4-.7,1.4l.3,1.2.7,1.3.8.4,1.5.5,1-.3,1.4-1.2.5-.3h.9l.8-.7.7-1.3.7-.7.3-.7.7-1.3v-1.7l-.3-.7-.2-.5.5-.3.8.2.4-.8.2-.7.7-.5.2-1.5-.2-2.3v-1.3c-.1,0,.5-.7.5-.7l.9-1.2v-1.5l-.3-1.5-.4-.7.2-.7.7-1.5v-1.2s-1-1.2-1-1.2l-.5-1,1-2.3,1.2-2.3-.5-2,1.4-1.2.7-2.3-.5-3,.7-1.7.4-2.5.9-2-.7-3.3.2-1.7-.8-3-1.4-1.3-1.1-6,1.5-2.8,2.4-4.3.7-2.2-1.4-2.7-1.8-4.3-.7-2.2,2.4-1.7-.6-4.5-.8-2.8.2-1.3,1.5-1.7,1.4-.3,2.9-1.3.7-1.2,1.7-2,1.6-1.5.5-2.6h.8l1-.7,1.4-1.7h2.4l2.9.9.5,1.2-.7,1.2-1.7.7-.5,1.7,1.5,1.5.8-1.5.9-.8,1.4.3,2.1,1,.6,2.6v2l-.2,1.3.7.5-1,3,.8.2,2.1-1.7,1,.3,1.4,1,.7-1.2.5-.7,1.5,1.7,1.9,1.5,2.2.3,1.4,3.5.9-3-.2-1.2-.7-1.8,1.4-2.5,1.6-1-1.2-1.3-2.4.5-1.5,2.3-1,.5-2-2.3-1.9-.9-1.9.5-.7-.5.3-1.7-.3-3.5-2.9-3-2-1.2-.5-2,2.1-1.7,3.2-1.2,2,1.7,2,1.7,2.7.2,2.9,2,.8-.8.5-1.3,2.1-.8.8,1.2.7.5,1-.7.7.7,1-.8.3,1,.2.8h1.5l.5-1.3,1.5-.2,2.3.7h.9l.2-.7-1.4-1-.7-.7-1.5-.5-1.9-1-1.5-1.5-1.7-.2-.7-.8-2.1-1-2.7.6-2.7.7-2.2-.9-.2-.8,1.4-.2,2.5.4,1.4-1.7-.5-2v-1l2.1-1.8-.7-2.3-.9-.7-.7-1.8,1.7.2,3.2,1,2.3.8.7.5.3.7,2.2.5,1,.8,2,.5.9.3.5.8.9.7-1.7,1.5-.8-.7-.5,1.2-.2,1.8.3,1.7h1.7s1.5.5,1.5.5l1-1-.9-1.5.5.2,2,1.2,1,1.4.5.5,2.2.7.2.4-.3.8.8,2.5-.4,1.9,1.2,1.2.3.7h2s.9.4.9.4l.2,1.3-.9,2,.7,1.2,1,.5v1.7c.1,0,1.2,1.7,1.2,1.7l1.9.4,1.4,1,.8.7-.2.5-.7.7v.9s-.7.3-.7.3l.5,2.2,1.5,3.2-.2.8-.7.5.3,1.5-.2.8.2,1,1.2,1.7,1.9.8.4.3-.4.5.5,1,.9.2.5.8.3,1.2-.3.8.5.4.8,1,.5.2.3.2-.5.8-.5.3-.4,1.5,1,1.2.3.8.5,1.2.5.3-.2.5-1.5,1.8-.7,1.8v2c.1,0,.6,1.8.6,1.8l-.3,1.3-.5,1.4-1.4,1-.2,1.3.7,1.7,1.3,1.2.3,1.3-.7,3.2v.8l1.4,1.5,2.3,2,.7.9-.2.7-.3.5-.2,1.5.7,2.2.7.7-.2,1.5.3,1.2,1,1.3.8,1.7.3,2.5-.2,1.2-.3.9.5.8-.5.5-1,.7-.9,1.3-1.4,1.3-1.5.7-1.9-.2-.5-.2,1.1-2.2v-1.8l-1-1.5-2.9-2-2.4-.8h-2.7s-.5.6-.5.6l-.5,2-.5,1.2-1.4,1.3-.7,1.5v1.3l1,1,1.4,1,3.2.4-.4.5-1,.2-.5,1.7-.4,1.3.7,1.7,1.2,1.8,1.9,2.2,1.9,1.2h1.9l.3-.7h.7l.2,1,.7.7.5,1v1.5l.3.8.5.7.7,1.3.3.7.8,1.2-.9.3h-1l-.5.5-.7.7-.7.3-.7,1.2-1.2,1-.2,1.8v1.5l-2,.2-1.9,1-.5.5-.3.7-1,.3-.8.3-.9-.5-1.2.5-.9,1.2-.7.5v1.8c.1,0,.8,1.5.8,1.5l1.9,1.5.5.5-.7.7-2.1.7-.8.5-1.4.2-3.9,1h-1.9c0,.1-1,.6-1,.6l-1.4-.2-1.4.8h-4.2c0,.1,0-.4,0-.4l1-1h1.5l.9-.5.3-.8-.2-1h1l1.4-.7.7-.5h.5l.2-1-.3-1.7-.7-1.4-.9-1.3v1l-.2,1.2-.4.5h-.7l-.5-.5-1-.5-1,.3-1.2,1.3-.2.5-1.6.7-1.9.3-1.5.3-.2.3-.8-.2-.8-1.2.2-2v-1l-1.3-1.5-1.4-1-.7-.3.7-.7.4-.7.7-.3-.3-.3-.5-.2-.9.8h-.5c0,.1-.7-.5-.7-.5l-.5-1,.2-1.2.7-1-.3-.7-.2-.5.3-.5-.3-1.7.2-.5.9,1.2.5-.5.7-.7.7-.8h-.7l-1,.7-.5-.3-1-1.5-1.2-.3-1.4.2-.7.3-.7-1.2v-.5l-.8-.5-.3-1.2-1.4-.5-.5.3,1.2.7v1l.3.3-.5.7,1.4-.2.3,1-.2.9.3.7.7.2.3,1.7-.5.8-.7.9-.3,2.2.3,1-.7.8-.4,1.5v1.3l-.5.7-.5.3-.8-1.2-1.5-.4,1.2,1,.7,1,.2.8,1.7,1,.7,1,.7,1.2.7.5.5.5v1.2s0,.5,0,.5l.7,1.4-1.2.7-1.7-.4-.7-.3-.9.5-.3.7v.3l-.4.2-1-.2-.4.7-.2,1.3.2.5-.5.3h-1.9l-.9.5-.7-.3-.7.3-.5,1.3-.4.7v1.2l.2.7-.2,1-.9,1.3.3.2,1.2-1.2.9-.8.5-.7h1.9v.5l-.7.7-.7.5v.8l.3.7-1.4,1-2.7,1.3-1.5.5-2.2.5h-1l-.7-.7-.4.5-.2.8-1.2.7h-.7l-.4.7v.5l-.3.7-.9.2.3.8.2.8.7.3-.7.7-1.4,1.7-.5.2-.7-.9h-.9l-1.4-.3-.7-.7-.9-.5.7,2.8-1.2.8-2-.7-.7-.2v1.9l-.9,1,2.1-.3h1l2.2.4,1.2.3,1,.8-.2.7-1,1.2h1.2l1-.8.7.8-.2,1v.7l-1,.5-1.2.3-.9.2-.9.5-2.2,1.2-1,.3h-.4l-.2.5-.3.8-1.6,2.3-.2.8-.4.7h-1.7c0,.1-1.5-.7-1.5-.7l-1-.3,1,1.7,1.4.9h1.9l.2,2.5-.9.3-1,.7,1.4.7-.7,2-1.4,1.2-1.4.3-.4.5v.7h-.7l-.4.8-1,.7v1l.9.7.7-.2v1.7l.5,2.2v1.2s-.7,1.2-.7,1.2l-1.4,1.2-.2.8v1.2l-.2.3-.7-.2-1.4.5-1-.7-.2-.7-.3-1.2-.2-.5.5-1,.5-.3.4-1.3.5-.5-.2-1-.7-.3-.5.8-.2.8-1,.2-.9-.2-.2-.5.5-.5-1-.5-1.2-.7h-1.2c0,.1-.3-.5-.3-.5l-.9-.2-1-.5-.9.2-.8-.2.3.9.5.3-2.1.7-.5.5.8.2.5.2.2.8.8-1h.4l.2.5-.2.7,1,.7,1,1.3h-.9l-.7-.2h-.7l-.5.5-.8.3h-.9l-.3.5.8.5,1.4,1.2-.2.5-1.4.8h-1s-.9,1.1-.9,1.1l-1.2.5-.2.9-.5,1.3-.4,1.3-.5,1.2-.9.7.5,1,1.4.2.5.5.2.8-.7.7,1,.3.7-.7,1.2-.8,1,.4.9-.3.7.5.2.5-1.4,1.3-.9,1.3-.4.8v1.2l-1-.5-1-.2-.9-.5-.2.5-.7.5-1.7.5-.9.3-.9.8v.5l.2.5-.7.7-.4.5h-1.2l-1,.2-1.2,1v.5s-1.2,1-1.2,1h-.5l-.9-.2-1.5.7.2-.5v-.7s-1.2.2-1.2.2l-1-.5-.2-.5-.5-.5h-1.2c0,.1-.5.8-.5.8l-.8-.2-1.2,1.3v.5s-.2.9-.2.9l.8,1,1.2.8.5,1.2-.8.7-1.4.2-.9.7-.2.5-1,.3-.4,1.2,1,1,.5.8-2.2,1.3-1.2-.2-1.7-.7,1-.3.7-.5v-1.4s.9-1,.9-1l-.3-.5-.4-.7-1-1.2-1.4-.5-1.4-.5-.7.3-.7-.3-1.2-.7-1.9.8-.5.8-.7,1.2h-1.2l-1.4-.2-.5.5-.2.7-.9.2-1-.7.3-1-.2-.5v-1l-.7.2-.5-.3-.4-.2-.5.3-.3.7-1,.3-1,1-.7,1-.5-.7-.2-.7.5-.5-.8-.8-.7-1-1-1.5.4-1.2.5-1,.5-.3-.9-.3-1,.7-.5-.5-1.4-.2-1.2-.7.4-.8-.5-.5-1.2.3-.5-.7-.8.2-.9-.3-.3-1.4v-1.5l.9-1.2.5-1.5.9-.3,1.7-.3.5-.7.7-1-.8.2-1.7.7-.8-.4-.9-1.2h-1.2v.5l.3.5-.5.7-.4,1.3-.3.5-.2,1-.9.7-.2,2.2.5,1v.5l-.8.5.5.4.7.5-.3.7-.7.7.5.5.5.2-.2.8.3.4,1.2.5.4.8.3.5-.5,1.2-.9.7-.2.5-.5.3-1.2.5-.5.3-.2.5h-1l-.8-.8h-1.7l-.7-.5-.5-.7h-1.7l-1-1.2-.2-.5-.5-.8-1,.2-1.2-.2-.7.7-.5-.9-.7-.5.7-.7-.3-.7-.4-.3h.7l.8.8,1-.2.9.2.5-.5.9-.2.7-.5.7.3v-.7l-.5-.7.7-.8,1-1h-.8l-.7.5-1,.3-.7.8-.9-.8-1-.5h-1.2s-.3-.7-.3-.7l.2-1.2-.3-.5-1.2.7v.3l-.2.8h-.7l-.8-.3-.7.3h-1.2s-.7-.5-.7-.5l-.3-1.3v-1.5l.2-.8.4-.8.5.2h1.4l.9.2-.5-1,.2-.8-.2-1,.2-.8-1,.7v1l-.3.3h-.9l-.8.2-.9-.4-.7.2-1.2-.5-.5-1.3v-1.7l-.5-.3-.3-.7-.7-.3-1-.7.2-.5-.5-.5-1-.2v-1.5h-.5l-.3-.2v-.3l-.7-.7.2-.3-.2-.3-.7.3-.7-.5-.8.3.7.5.7.7.4,1,.3.9-.7.5-1-.2-1.2-1.2h-1l.5.8.3.7-.3.7.2.7.7-.5.5-.3.5.7h1.4l.7.7.9.5-.2.5-1.2.3-.9.9,1,.5.7-.5,1-.3.3.5-.7.7-1,.5-.5,1.5-.3-.3-1,.2-.3.7-.5.5.2.5.5.9.7.8v.5l.7-.2.7,1,.2.7-.3.5-1,.5-.5.3v.8l.5.8.2.7.5.7.5.2.4-1.2.3-.5h.5l.2,1,.9,1.2.3,1.3-.2,1.2-.7-.2-1.2-1.2-1-.5-.9.7.7.7,1,.2.5.5-.7.3-.9.3-.7.3-1-.8.2-.5-.5-.7-.7-.9-.5-.5-.5-.3-.9.3-.8-.5h-.9s-.9.8-.9.8l-.3-.3-.8-.5-.7-.7-.3-.5h-1c0,.1-.2.8-.2.8l-.5.7-.5-.4-.3.2.3,1.4-.4,1-.7.5v.3l-1.4,1.2-1-.5v-1l-.2-.7h.9s.8-.3.8-.3l-.3-.9.4-.5v-1l-.3-.2-1,.5-.7-.5v-.8s-.3-.4-.3-.4l-.3.3-.9,1.2-.8-.2.3-.7.2-.8-.8-.5-.9.5-1,.8-.7.8-.7-1.4.5-.3.7-.3.2-.2.9-.3v-.7l-.8-.2-.5-.2.5-.7-.2-.7.3-.2.9-.3.7-.3.5.2-.2.7v.7s.5-.2.5-.2v.9h.8l-.3-.7.4-.7h.5s.3.5.3.5l.7.3.2.7.5.5.2-.7v-.3h.9l1.2.4h1l1.7.7,1-.2,1,.5-.7.5-.3.7.8.2.9-.2.7.5,1.2.2,1.7-.3.2-.7.7.2.2-1-.3-.7-1-.3.2-.7.3-.2.9-.8-.5-1-.5-.4-.3-.5-.7.3-.3-.5.5-.5v-.3l-.8-.8h-.5l-.7-.7h-.8l-.7-.3-.7-.3-1.2,1.2-.2-.2-.2-1.5-.5-.8.5-.5.5-.3-1.4-.8-1-1.2-.5.2v-.5l-.9-.2-.3-.3.3-.5-.3-.7-.2-.8.5.2.8,1,.7.8.7-.5.9.3.7.5.9.2-.7-1.2.4-.2.2-.5-.9-.2-.8-.2-.7-1,.3-.9.3.2.5.2.2-.5-.5-.4v-.3l.4-.2.3-.5-.7-.3-.3-.7-.5-.8.7-.5-.3-.7-.7-.8-.2-.8-.9-1-1.5-.7-1.2-1.3-1.7-1.4-1-.7-.5-.5h-.9l-.5-.8v-.7l.9.3,1-.3h.5l.7.9.5-.8-.3-.9.5-.3v-1l-.2-.7.7-.7h.9l1.2,1h1.2s.5.2.5.2l.9.8v-.7l-.5-1.3-1.7-.2-1-.5-1.5-.5-.7-.7-.2,1-.8,1v.8s-.9-.2-.9-.2l-.7,1-1-.2-.8-.5v-1l-.5-1-.9-.2-1-.2-.5-.8-.8-.5-.5.2.5.7.3.8-1.5.2-1.4.5h-.9l.7.8,1.4-.3,1.7-.3.5.4.5.3.9-.5.2.5.3.8v.8l-1,.8-.9.3h-.3l.2.8-.5.5h-1.5l.2,1,.5.5-.5,1h.7l1-1.3,1.4-1,1,.7.5,2.2.9.7-.9.8v.3l1.2-.2.8.2.7-.3.7.2.3.5-.5.7-1.4.2-.9.7-.7.3-.9-.4-.5-.3-.2.7-1-.2-.5-.5-.3-.8-.7,1.2h-.7v.7l1.4.5.5.7-.7,1.2h.7l1.2-.3.7.2.2,1-.3.8-.9,1-.7,1.2-.7.7-1.2-.2v.7h-.7s-1.2-.5-1.2-.5l-.3.8-.2.2.5.5v.5l1.5,1.2.7,1.5-.5,1.8-.8-.2.2-.9-.7-1.8-1.5-.5-1.2.5v1s.7.8.7.8l-.2,1-.9-.5-.8-.8-.5-1.2.9-.3.2-.7-.8-.5.2-2.2.7-.3.3-.9h.9c0-.1.2-1.3.2-1.3v-.8s-.5,0-.5,0l-.5-1.2,1-1.2v-.7l-1.4.7-.8-.5.3-1-.3-1.5-.3-.4-.9-.3v1.5l-.5.7-.5.7.9.3v1s.7,1.4.7,1.4h-1c0,.1-1.2-1-1.2-1l-1.2.2-.7-.9-.7-.2.5,2,2.1.7,1.4.2.7.5.2,1-.7.3-1-.5.7,1,.2.8-.7.5-.5-.2-.8-.5.7,1.5-.5.7-.8-1-.7-.7-1.2-.2.2-.9-.5-.3-.5.7-.5.5-.2-.3-.2-1.3-1-.2.2.8v.7l-.9,1-.2.5,1-.2,1.5,1.5.7.3-.2,1h-1.2l-.2.2.4.5.8,1.4.7.8-.3,1.2,1.4-.3v.7l-.4.7,1.2.7-.3,1,.5.7.3.9-.3.2h-1.2c0,.1-1.2,0-1.2,0l.2-.5.4-.7-.4-.7-.8,1-1,.3-.9-1-.8-.3-1.2-.7-.7-.5h.8l1.2.2-.3-1-1.2-.5.2-1-.5-.8-.3,1-.9-.2-1-.2-.2-.7-.5-.7v-1s1.7.7,1.7.7l.8-.2v-.3s-1-.9-1-.9l.9-.8,1.5.4-.7-1v-.5l-1.2-1-.8-1.2-.9.8,1,1.4-.7.3-.3-.9-.9-.5-.7-1-1.4-.2-1.4.6v.5l2.2.2.3,1.2-1,.8-1.2.5v.7l-.5.5-1-.7-1.2-.3-2.5-1.5-.5-1v-1.2l.3-.5.3-.3-1.2-.2v.5l-.5.7-.5-.8-.3-.5.9-1.3.9-2.5.2-1.7.2-.2.7.7.8.5.4-.2.7.2-1-1.4.2-.5,1.4-.5v-.7h.5l1,1,.2.7.5.5v.7l.7,1.2.4-.7.8-.5,1.4.9,1,.7v-1.5l-.7-.8-1-.9-.8-.8-.5-1h-.7l-.3-.8.2-1.3-1,.2-1.4.5-.2-.9.7-.7-.8-.2-.7-.8-.7-.7-1-.5-.2,1.4-.2.5,1,.5v.7l.7.7-.5,1h-.5s-.5-.7-.5-.7l-.7.5-.9-.3-.5-.7-.2-.5-.5-.7-.4,1-.2.9h-.7l-2.7-.5-.9-.8-.5-.9-1.4-1.3-1.2-.9.7-1.7,1.4-.8,1.2-.7.3.7-.4.7-.5.8.7.2.5.7.2-1.2h1.2l.8.7-.5-1.5-.8-.3.3-.7,1-.5,1,.2-.2-.5-1-.5.2-.8.7-.8.7.2h.9c0-.1-.3-.7-.3-.7l.2-1.7.4-.7,1-.5.7.7.5.9,1.4.3h1.5l.7.5-.4,1v1.7l.8-.5.7-1.3.9.5.8,1h.3l.5-.5,1.2.7.8,1.3,1.4.7,1-.2-.4-.5-1.2-.7v-.7l.3-.8-.8.2v-.5l-1-.2-.8-.3-1.4-.7v-.7l-1-.2-.8-.5.8-.3.5-.5-.2-.5-1.7.5-1.7-.3-1-.7.3-1.2.7-.8.3-.8-1.4.7h-.9l-.7-.9.4-.8h-1.4l-.4-.7-1-.9h-.7l.7,1.4v1c.1,0,1.2.8,1.2.8l.2.9-1.2.5-.7-.3-1.2-1.3-.9-.2.5.8.8,1.5-.9.8-1.2.5.9,1.2-.9.5.2.8-1.2.7-1.4-.7-.2-.8-1-1.7-1.2-.9.5-4.3-.2-1.3-.8-1.3-2.2-1.2-1.9-.7.4-.9,1.2.7,1.6.2-.9-.7-1-1h-1.2l-1.7.5-1.2-1.3.3-.9.3.2h.9s1.2.2,1.2.2l3.2-.8h1.4l.9.4,1.2.5,2.7-.2,1.4-.7.5.4.7-.3.5-.3.7.3,1.2.3.9-.3,1.4.7.9.5h.7l1.2.5,1.9.5.7-.5h.7l1,.3.7-.5.5.2.2.7.7,1.4.2,1.7.7,1,.3.7.5.2.9-.2-.8-1-.2-1.4.2-1.8-.3-.8v-.5l1-1,1.4-1,.5-.9.7.5.5,1,1-.2.5.3.8.4,1-.5,1.2.8,1.7.7,1.9,1,1,.5.7-.7.7-.7h-1.4l-1-.3-.7-1.2-2.2-.8-1.4-1h-1.9l-.7-.2-.7-.8.3-.9,1-.5,1-.5-1-.5-.5-1.3v-.8l.9-2-.7-1,.2-1.3h.5l.5-.2.2-1.5.5-1.4.5.2.7.5.2-1.5.5-1.7-1.9-.8-.8-.4-.2-1.2-.5-.7-1.4-.2v-1s.4-.8.4-.8l-.5-.3-1.6,1-.5-1,.2-1.3-.9-.7-.5-.5-1-.3.2,2-1.2.3.3,1-.5,1,.9,1.7,1.7-.3,1.2.4,1,.8-1.5.7-.5,1.5-1,4.3-2.7,2h-1.4l-1-.5-1.2-.3h-1.2l-.7.8-.8.2-.9,1-.7.7-2.3-1.2-1,.3-.2-1.2.5-1,.2-1.7.5-1-.3-1.2-1.4.8v1.3s-.4.5-.4.5l-.9,2.8.7,1.2-.3.8-1.4-.8-2.4-.9h-1.2l-.9,1.5-.7-.2-.5-.7-1.9-2.2-1.2-.3-.5.5-1.9-.9-2.2-.3-.2-1,.3-.5,1.7-.8.2-1.2-1.7.8-1.5-.7-1.4.7.5,1.7-.7,1.5-2,.2-2.2-.8-.7.7.5,1-.3.7,1,.7-.2.5-2.2.2-1.4-.5-1.9-1.9-1.3-1.9-3.2-.3-2.1-1.2-1-1.3-1-.2-.5-1-1-.7.4-.8,1.2-2,.4-1.7.2-1.8-2.1,1.8.2,1.2-1.2,1.7-.7-.5-.7-.2v2.3l.7,1.5,1,.5-.5,1-.2,1.2h-.5l-1.4-1.5-2.5,1.3-.8-.9h-1.5l-1.4-1.2-.7-1.4-.5,1.7,1,1.3,1.9.8,1.2,1.4,2.9-.7.5,1,1.5,1,1,.7h1.2c0-.1.4-2.5.4-2.5v-.7l.8.5.4.8,2.2,1h1.7l.7.9,1.3.8.7.5,1.7,1.9.3,1-1.2,1.3-.4.5-.8-.3-1.5-.7-1.4.7-1.7.5-1.4.3.3.7-.9.8-.5,1.2-2.1,1-1-.2-1.2-.8-.2,1.7-.9.7-1,.5,1.4.9-.7.3-1.6,1-2.5-.5-1.2-1-2.4-.4-1.5.8-1.5-.3-.2-1.4-2.2-2.2-.7-1.7-.9-1.2-.7-.7-.5,1.4,1,1.5-.4,1,1.2,1.5.5,1.2.5,1.9,1.9,1.3,2.2.2,1.7-.7.9.3,1.3,1.9.7.2,1.4-.7.5.5-.7,1.7,1,.5h1.2l-.9-1.2,2.1-1.3-.2-1.4.7-.8h1l2.1-1.5h1.9c0-.1,2.1-1.5,2.1-1.5l.9-1,1-.3.9-1.5.7.7.3,1.8.3,1.5.5-1,.7-1.4.7,1,1.9,1.5.7,1.4.3,1.7,1,1.4,1.5.7,2.2.5,1,.3,1,.7-.7.8-.9,3,.5,2-.5,1.3-1.2,1.2-2.1.2-1-.7-3.2-.9-1,.5,3,1.9.3.7-.9,1.2h2.5s1.4-1.1,1.4-1.1l.7.5,1,2.2-.2,1.2,1.4,1,2.5,1.5-.2.7-.3,1.2,1,1.2,1.4,1-.5,1.5-1.5-.7-.9-1.7-.8-.7v1.9s-.5-.2-.5-.2l-1.2-.2-1,.5-.8.8,1.7.4,1,1,.9-.8,1.9.7.5,1-.7.7-1.5.7-1,1.2,1.2.5,1.2-.2-.9,2,.2,2,1.5-1.2.9-2.5.7-1.2.5-.7.8.9.5,1.2-.2,1.5.7,2.2,1.2.8v.7s.5.7.5.7l.3.8-.9.3-2.5-.4-2.9.2-1-.7-4-1.9-1.4-.3-1.4.3-3-1.2-4.2-1-2.7-.8-2.2-1.7.2-.8,1.4.8,1.7.2-.2-1.5-1.2-.7-1.5-1.2.2-.7h1.2l.7-1.8h1l.7.5.7-.3,1,.5,1.2-.7.9.5,1-.2-.5-1.3-1.2-.9-1.2-.2h-1.5l-.2-.7v-2l-.7-.8.2-.7v-1.3l-.7-.7-1.4,2,.7,2.2-.2,1-2-.3.7,1.3-.5,1.2h-1.7c0,.1,0-.9,0-.9l.2-1.3-1.7-.9-.3-.8-.7-1-1.7-.4-.8-1.2v2.5s1.3.8,1.3.8l.7,1.7.9.7-.5.7-.2.7,1.4,1v1s-1.4-.4-1.4-.4l-2.4-.5,2.3,2.7h-1.7s-1.4-.5-1.4-.5l-4.1-.9-2-1-.5-1,.5-1.3.2-2.2-.3-1.5-1.5.5-1-.3,1,1.3-.2,1.4-.9,1.5-2.7,1-2.5-.2h-3l-1.4-.4-.5.8.4.7-2.4,1-1.4,1-1.7-1.5-.7-1.4h2.7c0-.1-.3-1.2-.3-1.2l-1.7-.3-2.2-1.2-1.6.7.2,1.5-1.2-.7-.9-.7-3.2-1.5-3.2-.8-2.5-1.5-1.3-2.2v-1.5l.5-.5.9-3,.9-1.2,1.2-.8,2.5-.7,1-1.3,1.9-.3-1.2-1.3-1.9.2-1.7,1.3h-2.1s-1,.8-1,.8l-.3-1,.2-2.5,1-3.5,1.2-2.2-.5-1.7.8-1-.5-1.3-.3-.7-2.5,2.3-.5,1.5.3,1.3-1.6,3-1,3.1.3,2.2.3,2.6-.9,2.8.2,2-1.9,1.7-5.3-.7-1.9-.7-1.5-.3-1-.5-.3-.7.7-.7,1.2-.7.7-.8h-.9l-.5.2-.5-.2-.5-.2-.5.7-.5.5-.7.7-.7.2-1.7-.4-2.2-.3h-2s-.2-.5-.2-.5l-.5.5-2.7.3-.9.3-.3-.5-1.2-.5-2.7-1-1.9-1-1-.8.9-.5.3-.5-1-.5-.3-.5.9-.2,1.7.2,2.2-.5.9-1,.2-.3-1.5.5-2.7-.2-1.9-.2-.8.2-.5.8-.2.8-.9.2v.7l-.7.2-2-1-1-.5-.3-1,.9-1-.5-.8.7-1-.5-1.3-1.5-.7.2-1.2-1-1.7-1-.8v1.7l-.2.3.2,1.2.5,2.2.7,1.3-1.2,1-2.3.2-.9-.5-1.4-.4h-.7l-.7-.5-1.3-1.9-1.7-1.5-2.9-2-1.7-2.2-.8-.8-.2-.9-.2-.8-3.7-3-.7-.7-.3-.3-.7-.4-.7-.5-1-.8-1.2-.7-1-.7.4-.7.7-.7-.7.2-.5.5-.8-.5-1,.3-.5-.4-1.2-.5-2.5-2-1.7-.7-1-1-1.4-.5.2.8-.9.2-1.4-.8-.5-.8-1.5-1v-.8l-.8-.7-.4.7.3,1.8-2,.2-1.7.2,1.9,1,2.4-.5,1,.5,1.5,2,1.5-.3,1.2.2.5,1,.7.5.7-.2,1.5.7v1.2l.8.8,1.5.9.3,1.2.3.8h2.1s3.9,4,3.9,4l2.2,2.3.5.8.2,2.2-1-1-2.9-.9-1.3-1.7-1.4.5-.9-1-1.5-.4-.8-1.3-1,.2h-2.5s-1.2-.4-1.2-.4l-.8-.3.3,1.2,1.4.5,1,.5-.3.3.7.5h2.2l.5.5,1.2,1.2,1.7.7,1.2.8,1.5,1.9,1.7.7,1.7,1.2,1.4.8,1.2.8,2.2,1.5,1.7,1.4h.8l2.4.7,1.7.5.8.5.7,1.9,1.3,1.5.9,1v2c.1,0,1.2,2.3,1.2,2.3l.8,1.8-.4,1.3-1.7.8.7,1.2-.5,1-.2,1.8h1l-.2,2.2.3,1.2,2.1.4.8.3-.3,1.2-.2,1.8-.2,1.9,1.4-1.2.4-1.9v-.7l.9-.5.2-.7-.7-1.2-1.5-.9-.5-1,.8-1,.2-1.5-.7-.5-.2-.8.5-1,1.9-1.2,1.7-.8,4.1-2,3.4-1.5.7,1.3,2.8,2.7,1.4.2.3,1.5,1.4-.5,1.2.5,2.9.7,1.5,1.5,3,.7,2-.5,1.9.4,2-.3,2.2.2,1,.2,1.9,1.7,1.5,1.2v1c.1,0,2.3,1,2.3,1l1.2,1.7.3,2.3v1.2l-.7.7.2,1.2.3,1-.2,1h-1l-.3,1-.4.7-1.5.5h-1l-1.4-.4-1,.3-.7.2.3.7-.7.7-1.5.2-.7.2-.4,1.3,1.9-.7,1.2.4,1.5-1,1,.2,1.5.2.7-.5h1.4c0-.1,1.6-1,1.6-1l-.2-1.4h.8l1.2,1.7v-2l.7-.5-.2-1.2-.5-1.3.3-.7-.2-1v-1.4s1.9,1.4,1.9,1.4l1.2,1.2,1.2.5,3.6.2,3.9-.6h.8v.8l-.5,1.3,1.2-.3.8,1,1.4.5,1,.2h1.2s1.7.5,1.7.5l.8.7.5.2.9.7,1.7.3,1.5-.5.7.3,1.4-.3h2.2l.3.7,1.7,1.7,2.4,1.5h2.2l.9.5-.5.7-1,.5-1-.5-2.1.5h-2.3c0,.1-1.4,0-1.4,0l.2,1-.5.3-.5-.5-.7.2-1.5.7-.9.2-.2.5-.2,1-.7.7-1.2,1.5-1-.2-.8-.3.3,1-.4.5-2.2,1.7-.3.7-.7.3-1.4.5-.2,1-.2,1.7-.8.8-1.5-.5-1.2-.3-1.7.7-.4.8-1.7.8-1.4,1,1,.7.2,1.4.8.3,1.9,1.5,1.3,2.3,1.2,1.2-.3-1.5-.5-.5-.5-1.3-.5-.9-1.5-1.8.5-1,1.2-.2.7-1.2h.8l.9.8,2.2,1.5.2-.7.7-1,.9-1.3-.2-1.8.9-1h.9l.8-.7,1.2-1,1,.5.4-1.2.7-.7,1.2.3.5,1,.4-.5.2-1.5.9-1.7,1.2-1.2,1.4-.2,2.1-.8h1.2c0-.1,1.2.9,1.2.9l2.1-.2.5.7-1.2,2-2.2,1.3-.2,1,.8,1.7.7,2v1.3l.7-.8.4-1.2-.5-1.2.9-1.2v-1.2l1.9-1.2,1,.5.9.7,1,1.3.2-1.3.4-1-1.2-.7-1.2-1,.8-1.5,1.7-1.3,1,.3.7.7,1.2.5h1l.8-.3,1,.7,1.5,1.4,1.2.2,1.3.3.4-1,1.2-.8h2.2s2.7.2,2.7.2l1,.9.7,1.3-.3.8-.9.7-.2.8-1.4.3-2.2,1h-2.1l-1.4.5,1,1,1.5-.2,1.2.2.3.9-.5.7-.5,1.2,1.2-.5.7-1.5,1-1,1.4-.2,1.2.5-.3,1,.2,1.2-2.1,1.2,1.4.3.7.8-.3,1.5-1.9.3-1.5.8-.7,1-1.4.3-1.4-.2.5,1.2h2.1l1-.3,1.5-1,1.4.2.8,1,1.2,1.9-.5,1.5-1.4.3-2,.2-.9,1.2-1.2.7-1.4-.7-.9-1-.8,1-1.2.3-1.5-.2-.2-2-1.5-1.5-1.7.5-1.4.8,2.2.5.7.5-.3,1.5,1.5,1,.7,1.3.5.2,1.9-.8h1.4s1.7,1,1.7,1l3.2-1.7,3.2-.3.8.8.7,1.9.8-1,1,.5.7,1,1.7.4,1.9-.3,1.4.8h.7l-.2-.7-2-1.3h-1.4s-.3-.2-.3-.2l-1.5-2.5-1.4-.8.2-1-.3-.8.3-.7.7-.2.7-1,1,.5.2,1.3,1.2.3v-1l.9-.3,1.2-.3.9-.5,1.2.5h1.5l-1.4-.8-.5-1h-1.4l-.9.3-.7.5-1-.2-1-1-1.2-.2h-.7l-.7,1.2-.7-.2-.5-.7-.7-1,.3-1.3.5-.7-.7-.8.7-.2.8.2.4-1.2.3-.3.9.5.8.2.9-.2-.9-.7-1-.7-.2-1-.9-.2-.7,1-.5-1-.2-1.3.9-1-.4-.9.5-.8,1,.2.5-.3,1.4-.7,1.7.2,1.2-.2.7.3,1.2-.3,1.2.4.8-.3,1,.5.5-.5,3,1,1-.2,1.9.2.3.5-1.6,1.3-1.4-.5-1.4-.7-.7.3-.7-.9-.2.9-1,.3h-.7c0,.1-1.2.6-1.2.6l1,.7,1.2-.2.5-.7,1.2.2,1.2.3.5.9,1-.3,1,.7.2,1,.5-.8-.3-1,.8-.2.9-.2,1.4,1.7,2,.2.2.7-.7.5-.3.8-1.2-.2-.7.8-1.5.2-.5.7,1.2.7-.2.9,1,.3,1.2-1.8,1.4.2,1.2.3.3,1.7-.7.7-1.2,1.2.3.3.7.7-1,.8.7.3,1,.9,1,.5-.7-1.5.4-.7.2-1.3.5-.7.2-1.8-.2-1.7,1-.3,1.2,1.7.3,1.7.5.7.3-1.5.2-.5,1.5.5-.4-1.2-1.3-.2-.9-1,.7-.7-.7-.2-.7-.5-.5-.7-1-.3.2-1.2-.8-.9-.2-.3,1.2-.5,2,.5,1.7.2,2.7.2h3.2l1.4.5,1.7.9.7,1.3-.7,1-1.2-.5-1.4.2-.5-.5.5-1.2-1-.2h-1.2l.5.5.3,1.7-1.2,1.2.3,1.3-.5.7v.5l.7.2.3,1.3,1,.2-.2,1,.2.7h-1.2v.8l.7.8-1,1-.4,1.2-1,1h1.4l.7-.3.5-1.2h.5l-.2,1.4.5.8.8-.2.4-1.3.3-.7.9.2,1.4.8.7-1,.2-1.2-.9-.8v-1h1.2c0-.1.3.7.3.7l1,1,1.4.3-.2.7h-1.3c0,.1-.9,1.1-.9,1.1l.5.7-.2.8.5.8.8.7.9.4.5,2h-1.2l-1.4-1-.5-1.2-.5-.7-.7.7-1.2.2-1.4,1.3-1.2.5-1.4-.2.3.5,1.9.7.9-.2.9.3-.7,1,.8,1.7.9.8,1,.9h-2c0,.1-.4,0-.4,0l-.5-1.2h-1.4l-.2,1v.8l-1,1.3-.5-.3-.8-1.3-.5-.7-.5,1.2.5.7-.2,1.3-1.4-.8-.5-.3h-.9s-.7-1.5-.7-1.5l.2-1-.3-.2-1.9-.4-.5.5,1.2.9v1.7l-.4.8.5.7,1.3.9.4.3.3,1,.8-.2.2.7,1.2.3.9-.3.5-.5.5-.2v1.5c.1,0-.7.2-.7.2v.8l1,.7h1.4l.9,1.3v.7s-1.1,1.2-1.1,1.2l-.8-.2-1.4-1.7-2.2-.7-1.7-.3h-1.2l-.9-1.2-1.5-1.2h-1.4l-.5-.4-1-.2-1,.2-.7-.5-1.4.7-1.5-.9.2-1.2-.5-1.2-.7,1.8-.5.8-.8-1.3-.7.5-1.2-.4-1-.7-.7.2-1.9-.4-.7-.7-1,.7-1.7.2,1.7,1.2,1.5.2,1.4.8.3,1.2,1.7.3,1.2,1.2.5,1-1.4.5-.5,1.2-.2.7-1.5.2,1,.8,1.4-.3.7-1.7.8.3,1,.2.7.5v-1.2l.5-.7.9-.2.7.7.7.7h1.2l.9.2-.2,1.2,1.4,1,1.4,1.2v1.3l.5.2.7-1,1,1,.7-.7,1,1.2-.9,1.2h-2c0,.1.2,1,.2,1l1.4,1-1.2,2.3.3.8-.3.7h-2.1s-.7-.7-.7-.7l-.2-.7,1.2-1h-1l-.5-1.2.2-.8-.7-.8-1.4-.3.3.8-.2.8-1,.3-.7,1-.4.2-.7-1.3-.7-1.2-.3-1-1.2-.7-.5.7,1,1.3.2,1-2.5-.2-1.5-1.2-1.4-.7-1.7-.8.4-1.2.2-.8h-1.9l.2-.7-.7-.9-2-2-.9.8-1-1-1.5.2-1.4-.5,1.4,1.3,1.5.5,1,.5.3.8-.5,1.2h1.2l.8.7.9,1.2-.9.3-2.2-.8-1.9-.9-1.2.3,1,.3.3.5,1.7,1.7-1.5.3-1.4-.3-2-.7-.7-.8-1.4.7-.7-.7h-.3l.2,1.4h1.5l-.4.7-.5.8,1.7-.8.9-.2,1.7,1.7h1.5l1.3,1.9h-1l-1.2-1-1.2-.3.2.7-1,.5.4.5,1.2-.3.2.3.7.7-.7.8-1.5-.2-1.5-.4.3,1,1,.7h-1.2l-.2.5-.9.3-.7.7h-1s-.9.8-.9.8l-.7-.5-.5.5-1-.2-1.4-.5-2-.9-1.4-1.7-1.4-.2.4-.8,1-.8,1.7-.3.7-.3-1-.7.4-1.2-.9-1.2-1-1.2-.3-.8-.9-.3-.9,1-.8.5-.5-.7-1.2-.2.5.8.7,1,1.4-.3,1.2-.3.2,1,.8.7.2.8-.7.2-.7.5-1.2.7-1-.7.3,1.2-.2,1.2v1.3l-1.4,1.3v.8s-1,.3-1,.3l-1.2-1-1,.2.5.7,1,.8.5.9-.5.8-1,1.2-1.4.5v1.3c.1,0,.1.7.1.7l-1.2-.2-1.7.3-1.4.7v.8l-1.2-.2-1.2.3-.2.2.7.7-.2.8-.5,1.3-1.5-.3-.7-.7-.3-1-.7-1.3-.5-.5-.3,2.5.8,1.5-1.2.3-.7-.8-1-1.5h-1.4s-1.4.8-1.4.8l-2.1.8-.5,1.5-1.7.5-1.7-.3-2,.2,2.2,1.2,2,.4,2.1-.5.9-2.2,1.2-.2h1.7l.7.7-1.2,1.3-1.7,1.9.7,1.3-.3,1.3-1.4.7.5.3h1.7c0-.1.7.7.7.7l.5,1,.5.2,1,.5.5-.2-1-1-.5-1.3-1.2-1.4v-1.8l1.4-.8.9-1,.7-.2,1,1.3h1.4s.9-1.7.9-1.7l1,.7.8.3,1,.8,1.4-.3,1.4.7-.3-1.3.2-.5.2-1.5-.5-.8,1.4-1,1-.2,1.7.7,1.4-.5,1.5.8v-1l-.8-.9.2-.8.4-2.5.7-1.2,2.2-1.3,1.4-.8.3,1.5.5.7.3,1.2,1-1.3h1.2l2.4.3-.2.7-1.2,1-.7.7.5.5-.4,1.2.5.7.5.7.2-1.5.9-1.7,1-.8.7.5,1,.2-.2-1.5.4-.2,1.9-.7h1l.5-.3,2.9.7.2.7-.7,1-1.9-.3-1.2.2.9.7-.7.7v1.3l.9-1,1-.3.3,1.2,1-1,.7.3.7-.5.7-.2.5.3v2.3l-.7,1h-1.9c0,.1-.7,1.2-.7,1.2l.2.8-1.2,1.2.5,1.5-.2,1.2v1.7s1.5-1.7,1.5-1.7l-.3-1.7.2-.7.9-.7.5-1.2.9-.2.3,1.2,1,.2-.2-1.7.4-1.3,1-1.2,1.7-1,1,.2.3.5-.2,1.4-.7,1.2,1,.8v.5l.5,1.2,1.7-.3.3-.7-.9-.3.2-.7v-1.2l-.7-1,.5-.8v-1.4s.7-.3.7-.3l1,.2.2-.2-1-1,.5-.7.3-.8-.7.2-1.7,1.3-.8-.5-.9.5-1.4-.2.2-1.5.8-.8-.8-.5.9-.8-.7-.7h-1.4l.2-.8,1.2-1.2,1.2-1,.3.3,1,.5.8.9.2-.5.5-1,1.2.5.5,1-.4.8.3,1.4.9.2.8,1.2,1,.2.5,1.5,1.2.7.7,1.2.7.3.7-.7,1.2-1.5,1,1.3-.2.8-1.5.5v.8l-1.2.2v.7l.7.4-1.2,2-1,.7.2.8-.9,1.5-1.4,3.3v2.3c.1,0-1.7-.2-1.7-.2l-.9-1.2-1.2.8-1.2-.5-1.4-.8-1.2-.7-.3.9.8,1.3v.7h1.7l.7,1,.7.3,1.4.5.2,1v1.3s-.5,1.3-.5,1.3l-.9-.2-1-.3-.5.7-1.4.7-2.2.3v-1l.9-1-.5-1.2,1-.8-.2-.9h-.9l-.8-.8-1.2.5.3,1v1l-1.4,2.2-.8-1,.2-.7-.5-1.7-1.4,1.7.5,2-1-.2-.3-2.2-.5.7-.7.5h-1.7s1,1,1,1l1,1-.3.8-2.1-.3-.8-.9-.9.9-1-.4-.8-1.3-.9-.3-.5-1-.3-2-.3-1-1,2.2v1.7l1,2.2,1,1.2-1.7.5-2,.8-.9.8-.5.2-.9,1,2.1.2,2.1-.8h1.2l.7-.2.2,1.2,1.4-1,.9-.5.3.8.7,1.5.7.7.5-1.7-.7-1.7h.9c0-.1,1.3.4,1.3.4l1.4.2.7,1.7.2-1.5.7-1.7h.9l.7.9.9-1.4.7-.2,1.2,1.5-.4.3-.3,1.7.2,1-.7,1.5-.7.3-.2.3-2.7,2.2-.9-.2-4.1,1.3-2.1.8-1.7,1.2-1.5-.3-.2-1-.7-.5-1.7.2,1,.8-.4,1.4,1.4.7,1,1.3-3.1,2.2-1,.2-1.5,1.5-.9.2-.7-.8-1.5-1.2-.7-1.3-.5.2-.3,1.8,1.2,1,.3,1,1.2.3.7,1-1,.7-1.9,1.5-.5.5-.9.3-.5-.9v-2.2s-.6-1.2-.6-1.2l-.7,2-.7-.3,1.2,2-.9,1-2.7,1.8-.7-1.3.5-1.5v-1.2l-1.7.7-.5-1.7.3-.8.2-1-.5-.2-1.2.3-.5-1.5-1.2-1.2-.2,2,1.5,1.7v2c.1,0,.5,2,.5,2h-1l-.2-.3-1-.2-1.7-2-1.5-1.4-.8.2,1.2,1.4.8,2.3-.2.7h-1s-.8.5-.8.5h-1s-1.5-1.2-1.5-1.2l-1-.2.5,1-.3.7,1.2.3.7,1v.5l.3.3,1.5-.7,1.4.2.9-.5.9-.8.3,1,1.5-.7,1.7,1.2.2,1-.7.7.2.8-1,.7-.7.5-.2,1.5h-1.5l-.9.8-.2-.2-2.2.3-1.9.7-.5,1-3.6,1.7-1,.2.3-1.2-.7-1,.2-1-1.2-1.7-.2-1-.8-.8-.7-.2.3,1.3-.5.5-1.2,1-1.5-.7-1.5-.7-1-2.3-1.2-1-.9-.2.8,2.8.3.7v1.9l1.5-.2.7,1,.9.3,1.7.4.7-.2h1l.7,1.3-.2,1.5-1.2,2-1.2,1.5-1.2,2.2-2.9.5-3,1-2.4,1.2-.9.8-.4,1.3-1.2-1.4h-1.5l-1-.7-1.4-.4-1.5-1.2-2.8-2.3-2-1.5-2.2-2-.5-.8-.2-.7-.9.5-1.2-1-2-1-.5-.7.9-1.2-1-1.2.2-1-.3-.5.7-1,.2-2.3.5-1.3-1-.2-.8-.9-.7-.3.7,1.9-.7,2.5-.9,1,.5,1.5v1.2s-.4,1.5-.4,1.5l-.9-.2-1.9-1.4-1.3-1.8-1.9-1.5-1.7-1.2-.8-1-.5-.8v-.7h-.7l-1.2-.5-1-.3-.9.2-.2,1-.7-.2-1.2-1-1.9.5-.9-1-1-.9-.5-.8,1.9-.2.2-.5-.8-.8-.2-1.5,1.5-.8,1.2-.8.7-.7.3-1.9,1-.8-.8-1-.2.5-.9.5-.2.8-1,1.2-1.4.3-1.7,1-.9.2v.5l-1,1-1.5-.2-.5-1.2.4-.3h1.2s-.3-1.2-.3-1.2l.7-.5v-1.7l1.2-1,.4-3.7-.8-2.3-1,1v1.7l-.9,1.3-1.5.8-.2.8-1,.5.3,1-1.7.3-2.3-1-.7-1.9.3-1.8-1.7-.9-2.7-2-.3.2.3,1.7,2.2,1.7.8,2.5v1.3s-1-.5-1-.5l-1.2-.3-.8-1.5-1.5-.8v-.8l-1.2-.9-.7-.8-.7-.7-1.2-.4-.7-2.6-1.9-2.7-.2-1.4.5-1.5-.7-.3-.5.3-.5-1.5-1.4-.5-1,.7.2-1.5.3-1.7-1.3-2.7-1-1.5-.8-.7-1.2-3.2-.3-.7-1.4-.2-.7-1.2-.2-1.3-1,.3-2.9-1.5-2.2-1.4-1.7-1-1.7.3-1-1.5-.8-1.7-1.4-.8-.4.2-.2.2.5,1.2.3,1.5-.7,1-.9-.7-.8-1.7-1-1.3-.7-1.4-.9.7.7,2,.5,2,2.2,1.5,2.2,1,.2.3-1,1-.2.7,1.7-.7,1-.8.9.3,2.5,1,1,1.8,1.2-.5.8,1.8-.7,2.2,2.4,1.2.8,1,2.5,3,.2,2.8-2.7.2-1-.3-1.4.3.7.7.2,1.5-1.2,3-.9,1.2-.9-.5-.2.9.2,1.2-1.5,1.7-1.7,1.2-2.1.7-1.9.3-1.9-.5-2.5-.3-1.2-1.2-.7-.2-.4.7h-1.5l-1.7-.2-2.7-.5-.3-.5,1-1-.5-.5-1.2,1-1,1.2-1.2.3-.5.5.9.5.5.2v1.3l.3,1,.9-2.2.5-.7,1.2-.2,1.4.3,1.2.4.5.3.7,1,1.4-.3.7,1.2.9.7.2-1.5,1.9.2,2.5,1,1.9-.2.3,1.2.9-.8.9-1.3,1.9-.8v.5s-1.2,1.9-1.2,1.9l1.4,1-.2-1.3,1.2-1,2.1-.5.3-1.7-.3-1.5,1.4-1.7.9-.5.7-2.2,1.7-2.3.9.2.7,1-.7,1,.9.3h1c0-.1.8,1,.8,1l.8,1.3,2.4,1,.5,1.2.8,3.8,2,2.2,2.3,2,1,2,1.2,1.3,1,1.2.7,1.7.6,4.3,1.2,3.3.6,3.5,1,1.5,1.7,1.7,3.2,2.5,1.4.5,1.5.8,1.4,1.7,1.5,1,1.5,1.8,1,1.2,4.9,1.4.9.7.7.5,1.5,1.2,3,.9.7.7-.5.7-1.7-.2-1.5-.7v.5l.3,1.2-.2,1.3-1.2.7-1.7-.2-1.2,1.5-1.2.5-1.2.7.2.7,1.5.2,2.1-.8,1.5-.7.5.9-.9,1.3-.7,1.2.3.7.5.3-.2,1-.5.7.5.8-.2,2.3-.9,2.2v2.2l1,1.7.9-1.7.5-2.8.4-.8,1.2-.5.3-.8-.7-.7v-.8l.9-.2.8.2v-.3l-.2-.4.3-.3-.5-.3-.5-.8.2-.7-.7-.5-.2-1.5.7-1-.3-.8.5-1.3,1.4-.2-.5-1,.7-1,1,.4.8.7h3.4s3.1-.1,3.1-.1l2,1,1.7.8.3,1h-1.5l-.9.7.7.2-.5,2,.9-.2.8-.7.9,1.2-.2,1.2.5.5v1.2c.1,0-.5,1-.5,1l-.9,1-.4,1.7-1,.3h-.3l.2.5.5.5-.2,1.3.2.8-.5,1,.7-.3.2.3-.7,1.4-.2,1.5.5.7.3-.3v-1s1.6-2.2,1.6-2.2v-1.2l-.7-.7.7-2,.5-1.5,1.2-1.2,1.7,1.7.7,1.4.8,1.2,1,.2-.2-1.3-1-1.4-.3-1-.5-.2-1-1.5-.7-.3.2-1.7.3-1.3-.8-1.7.2-.3,1.9-.3,2.2-.8,1.7-.2.7-.7,2,.3,1.9.2.7-.5.3.7.2,1.2.5-.3.2-.3,1.2.5,1.2,1,1.4.2,2.3,1.2,2.9,1.7.5-.2,1.9,1.7,3.2,1.2.2.3-.4,1.9-.9-.2-.3,1-1.9.8-1,1.7-.3.7-1.7,1.5.2,1.2.7-.3,1-.3,1.5-2,1.2-1.3.7.2-.7,1.5v2.2s-.5,1-.5,1l.7,1.7-.4,2,.3,1.9,1.2,2v1.5s-.9.8-.9.8l1,.2.8,1.3.4-1.8v-1.3l1.4-.8-.7-1-1-1.2-.3-1.3.5-1-.3-1.8-.3-1.2.3-1.5-.3-1,.7-1.3,1,1h.9l-.8-1-.5-1.3.2-1.7,1-1.8-.2-1.5.2-1.7h2s1.6-1.1,1.6-1.1l.3-.7,1.9-.3.5,1.3.3,2,.5-.7.3-1.7v-.7c-.1,0,1.1-1.3,1.1-1.3l1.7-2.2,1.6-2.7h.5l.2-.8v-1.5l.7-1.8,1.2-.3,1.4-.8,1.4.5,1.5.2.3-.7,1,.4-1,1.3,1.2-.3,1-.3.8.8-.5.8.7,1,.5-.7,1.2.7,1.7,1.9,1.7,1.3.8,1.2-1,1,.3,1.3-.3,1-1.7-.5.3.8.2.9,1,.2-1.4,1-.5,1.2.8.3.2,1.2-1.2,1.7-1.6,1-1.4.8-.5.2-.4,1.3,1.4-.3.3.5.5.7,1.5-.7.4-1.7.3-.2.5.8.3-.5.9-2,.8-.2,1.9.5.9.3.3,1.3.9-.5,1.2.4h1.2l1.4.5v-.5l-1-.8-.5-1.2-1.9-.2-.7-.2-2.4-1.2-1.2-.5.5-1.4,1.6-2,.7-2.5,1-1.2.8,1.2,1,.3.7.7.2-1.2-.9-.7.2-1v-1s-.3,0-.3,0l-.5.3-2.2-.7-.4-1-1.2-1.2-1.4-1,.5-.8,1.5-.3-.3-.3-.9-.3h-.5s-.4.5-.4.5h-.7l-.3-1.2.3-1v-.7s-.3-.2-.3-.2l-.5.5-.4.8-1.9-.2-.7-1-.5-.3v-1.3c-.1,0-.7-1-.7-1v-1.2c-.1,0,.7-.8.7-.8l1.6-.5,1.5-1.3.5-1.8,1.2-.7h2.7l1-.8h1l-.2,1.4.3.7.5-.5.7-1.7.9-1,.9-.8,1,.2.9-.3,1.2.7.9-.3,1.5.2,1.5.9,1.9.5,3.7,1.7v1.5l.2,1.2.5.8-1,1.3-.7,2,.9-.3.7-.5.8-.3,1.2,1.9.3,1.3-1.2,1.3-1.2.5-1-.3.7,1,.9.5.3.9.7-1.5,1.3.2.5-.8.7.5.3,1,1.4-.3.5.5.2.7,1.5.3,1.7,1,.2.7-.7.8,1.2-.2,1.5,1.4.5,2.5v1.7s-1.4,1-1.4,1l-1.9.5-1.4,1.2-.8.7,1.4-.3,1-.3,1,.5.2.5,1-.5,1.4-1.5,1.5.9.7,1.5.2,2.2.8,1.3,1.5.2,1.4.5,1.9,1.3.7,1.4,1.2.3v-.7l-.8-1.2-2-2.5v-.9l-.7.2-1.4-.3-1.2-1.5,1.2-.7.5-.8-.9.2-1-1-.9-1.2.9-.5-.8-.2-1.2-1.3.2-2.7,2-.3h1.4s2.1.7,2.1.7l2.4-1.3-1.7-.2h-1.4l-1.3-1h-1.9l-1.2-.3-1.2-1-.9-.2-1-2,.2-.7-.7.2-1-.8-1.9-.5-.9-.3-1.3-1.5.7-1.8-.7-.8-1.2-.3-1-1.5-.2-1.2-1-1,.7-1.5-.3-2.2-.9-.5v-.8l2.2-1.8,2.9-1,1.3,1.4,1.4.8.5-1.5-1.4-1.9,1.9-.8h3.7s2.5-1.1,2.5-1.1l2.3.5,1.9-1.2,1.7.5-1.4,1.7-.9,1,2.7.8.8.7.7,1.2-2,1.2-2.4.5-.5,1-.2,2,3.2-2.5.7.8-.2,1.9,1.4-.7.4-.8,2.1-1.7,1.2.8.2,4-2.2,1v2.8s.1,2.5.1,2.5l1.9-.8,1.2-1.2.2-1.8.4-1.5,1.9-2,1.1-3,.7-1.5-.9-.7-1.5-.2.9-1.2.2-1.2h-1.9s-1.2-1-1.2-1l.5-1.5-1.9-.9-.9-1,1.1-2.3,2.4-1.5,1.2,1.7,1.2.5.3-1.5v-1.2c-.1,0-2.8-1.4-2.8-1.4l-1.9.5-.5-1.2,1.2-1.3-.2-1.7.9-3.3,1.6-1.7.7,2v2.3c.1,0,1.5.9,1.5.9l1.4-1,1.7,2,1.5,2.3.3-1.5v-2c-.1,0,1.2-1,1.2-1l.3-.9-2.2-.2-1.2-1.2-1.9-1.7,2-.2h2.7s-.3-1.8-.3-1.8l-3-1-1-1.3v-1.9s-1.9,1-1.9,1l-1.2.2.9-3.3,1.2-3.2,2.2.4,1,1.3,1,.2,1.7,1.7-.4.7,2.4,2,1.5-.5.8.5.5,1.9,1,1-.4.8-.9,2.5.8,2.5,2,1,2.5,2-1.5.3-2.5-1-1.7,1.2.5,1.7-1.4,2.3,1.9,3.3-1.4,2,1,.9,2.2-.7,1.9-1v1.5l-.2,1.2-.5.7.3,1.2,1.3,2.7-.3,1.3-2-1-1.6.7,1.2,2.5-.2,2-.9,1.3-2.7-.9-3,.5-.5-1.4-.9-.5-1.2,2-1.4.5-.2,1,.8,1.2,3,.8.2,2.2-3.1,1.3-.7,1.5,3,.9,3.4,4.2.3,2.5,1.2,3.7,1.2-5.7-1.5-2.5-1.7-2.3,2.5-3.1,2.4.5.7-.7,1.7-1.5,1.7.4.2-1.9,1.5-1.5.2-1.3,1.9-.7.8,1.5-.9,3.1-.2,1.2,1.9,1-.9,1.3-1,.8h-1.2l-.7.2-.2,1,.9.7,1.5-.5,2.7-.2.7-1.2,1.9.5,1.4.5.7-1.3-1-1-.5-1-.3-1-1.4-1.2.3-1.2.5-.3.7-2,1.9,1.2,1,.3.7.7h.5l.5-.3-.2-1-.3-1-.8-1.3-1-1.5-1.4-1.2-.5-2.7,1.2-.3.3,2.2,1.7.2,1.5,1,1.4-.3-.2-1.7.5-.7,1,1.2.7.5.3.3,1.2-.2,1.7-.2.7,1,.5.3.8.8.9.2.7-2.2,1.2-.2v2s.8,1,.8,1l.5.8.7.4.7.5.9-.2.3-1.2-.7-1,.5-1.7-.8-1.5-.5-.9-.7-1.2-1.2-1.2-.8-1.7-1-1.5-1.9-2.2-.9-1.7-1-1.5-.7-1.5-1.2-2-1.2-1.5-1-1.2.2-.5.8-.2,1.2-.5.9,1.7,1.7,1.2,1,.4,1.9,1.3,1.2.7.2-.5-.3-1.9-.5-1.5-1.7-1-.2-1,.9-.2,2.4.9,1.2.7,1,1,1.5.5,3,1.5,1.2.5.7,1.2.5,1.5v2.5c.1,0-1.1,1-1.1,1l-.7-1.2-.3-1.5-.8-1.7-.2-1-.7-.3-.5,1.5-.7.2-.3-.7-.5-1-.3.2-.5.3.9,1.4.7,1.5.3.7.3.7.5,1.5.8,1.5.7,1,1,.8.5.9,1,.7.5,1.5.3.9.5,1,.7.5.8,1.2,1.5.7,2.2,1.4.2,1.7-.2,1v1s-2.1.3-2.1.3l-2.2-.2-.7.2-.5.7.2.3.7.8,2.7-.3.3,1.3-.3,1.3-1,.3-1.4-.2-.5.7-1-.5-.7.7.3,1.3.5.8.8.5-.5,1.8-.7.3-1.7-.2h-1l-1-.4-1.4-.2-1.2-.7-2.2-.9-1.4-1.5h-1.5l-3,1.2-1.6,1.2-1.7-.7-2,.8-1.7.3.9.8.8.2.7,1.3.8.5.7-.2.7-.5.9-.7h1c0-.1.8-.5.8-.5l.9.2,1.2.2.8.7-1.4,1.2-.7,1.5-.7,1.2-.2.3-.2.7-.2.5,1.4.5.7-.7.5-.3h1.9c0-.1,4.2.4,4.2.4l1.2.7-.9,1.3-.5.7-1.7,1.8-.4.8-.5,1-.9,1.5-.5.5-.7.8-2.6,1.7-.5.8-.5.7-1,.7-1,.5-.8-.2-1.5-.2h-1.4l-1.2-.5-1.4,2.2-.5.3-1.3-1.7-.7,1.9.8,1.2.2,2.7-1.7.5h-1.2s-.7-.2-.7-.2l-.5-.2-.9-.2-.3-1.9-.5-.7.2-1,.2-.7.5-.8.9-2.3-1.3-2.5-1.4-2.3-.8,1-1.6,2.5.7,1.5-.5,2.3-.2,1.7-.4,1.4-.3,1.5-.4,1.7-.4,1.9-.9,2.8,1.7,3.2-.5,2-1.5.3-2-2.3-1.4-1,.2,2-.9.3-.3.7-.7,2.6-.5,1-.5.3-.8.2-.5-1.5-1.7-.7-3-2.2-1.2.3.8,2,.9-.2,2,2.3.5,1.3.3,1-.7,2-1,1.7-1.2,3.1-.9,2.5-1.6,2.2-1,2.2.2,1.3-1.2,2-1.2.3-.3-.5v-1.4l-1-.2-.9,1.2-1.3-1.8-.3-.7-.2-.8-.2-1.7,1.2-2.3,2.2-2,2.3-.8v-2.7s-2.2-1.5-2.2-1.5l-1.2,2.3-1,.7-.7,1.2-.9.8-1.5,1.2-.5,1-1-.7h-2.3s1.3,1.8,1.3,1.8l.7,1.3.7.5.8,2h-2.7l-1.4.3.3.8,3.7,1.5v2l-3.9.3-.9.2-.7.8,1.2,1.8-1,.5.2.7,1.4,1.9.5.7.7.7v1.5h1.2l.5,1,.3.4.2.5-.3,1v1l-1.2,1-.4.7-2,.5-1-.5-.5-2.8-1.2.2.2,2.7-1.4-.2h-1.7l-2.4.8-1.5-1.7h-.9l-.3-2.5-.9.7-.4,2.7-.5-.2-1,.5h-1c0,.1-1.4.3-1.4.3l-1.9-.2-1.7-3,.5-2,.7-2.2-1.2-.3-1.5-.2h-1.4s.2-1.9.2-1.9l-.2-1.3.5-2.3,1-.8,1.2.3.7-.2.4-2,2.9-.3-1.5-1.2.5-1.3-1-.9-.2-1.2.7-1.5-.3-1.4-.7.3-1,1.2v2.8s-.9.7-.9.7h-.8l-.5,1.2-1.4-.7-1-.5-.7-1-1-2.5-1-1v-.7l-.7-1.2-.7-1.7v-2.5c-.1,0-1.5-.3-1.5-.3l-1.7-2-.7-1.3h-1.7c0,.1-.7,1.2-.7,1.2l.5,1.3.3,1.3.3,1.7.7,1.7,1.2,2.7.2,3.3v1.5s-.7,1.9-.7,1.9l-.5,1.5v1.7c.1,0,.5,1.5.5,1.5l-.7,1.5-.2,1.2-.3,1.7v2s-.2,2.3-.2,2.3l-.7,1.5v1l-.4.2-.8.5h-1.6l.7,1,1.4.2,1.5.5,1.7.3.8,2.7-.7.8-1.4.2-1.5-.2-2.2-.3-2.2-.5-1.9-.2-2.4.3h-1.7s-2.1.6-2.1.6l-1.9-1.3.5-1.5v-3l-.3-.5.9-1.5.2-2,3-1.3.7-2.5v-2c-.1,0-1.7-2.3-1.7-2.3l-.7-1.3-2.7-2.7-.5-.5.7-2.2-2-.7-.3-1.2.7-1.3-1-1.2-.2-1-.3-1.3v-1.9s-.7-.8-.7-.8l-.3-.8-1.2,1.3-.5,1.7v1.5l.3,2-.2,4-1.9-.2-2.4-1-.9.8-2.3-1.2-1.4.7-.7.2-.7.3h-.9l-1.5-.3-1.4.5-1.2,1.2-1.9.6-1.4,2.2-1.7,1.7-1.7,1.3-2.2,1.7,1.5,1.9,1.3.8,1.4.5h1.9c0-.1,3-2.4,3-2.4l1.2-1.2.9-2.3,2.2-.5,2.4.7,4.2,3.7v2.2l-.5,1.2v2.5c.1,0-1.6-.2-1.6-.2l-.8-1.9-2.5-.7v1.7l1.2,1.2-.2,2.5,2.5.5h1.5s1.5.7,1.5.7l1.5-1,1-.2.7,2.7-1.2,1.2-.4-.3-1.9.2-2.4-.2h-2.3l-4.4-.5-3.7-.2-4.4-.2-4.1-1.2h-7.6s-4.1-.2-4.1-.2l-5.6-.4-4.6-.4-1,.2-4.8.3-3,.8-2.2-.3-2.3.5-2.4.2-1-1.2-1.7,1.9-2.9,1.7-2.5.6-1.9.7-2.9-1.5-1.7-2.2-.5.5,2,2.8.2.9-.5,1-1.4.7h-.9l-1.5.5-1.9.7-1.4.7-.9-1-1-.3-.9,2.2-1.7.8-1.7.3-2.4,2-.7.2-.3.3h-1.9s-1.5-.4-1.5-.4h-.7l-1.9-.2-.5.7.2,1.4.5.3-2.7.2-.9,2.3-.5.2-1.5.5-1.2-2.3-1-.2-1.1,1.3-1.2-.3h-1s-1.2-.5-1.2-.5l1,1.9-1.7,1.3-1-.4-2,.7-2.9.8-1.7,1.7-1.9.2-1.2.2h-1c0,.1-1-.2-1-.2l-.7-.7-1.9-2.2.7-.8,2.7.4,2.5-1.7v-2.8l-1.9-.5.5-.9v-1.5l.9-1.7.5-1.3,3,.8,1.5-1.3-.7-.7-1.6.3-.7-1-.7-1-.5-.3-2.1,1-1.4-.7-.7-2.2-1.2-.3-.8-.4-.3-.8-1.2-1v-3s-1.5-.9-1.5-.9l1-2.3,1.2-1.7-.7-1.2-1.7,1.5-.8-1.2-.7-1-1.2-1.4-1.9-.8-1.4-.2-.5,1-1.3-.7-1-.7-.7.5v.7l.3.7,1.7,1.2,1.4.8,1,1.4-.2,1,.5,2.5.5,2.5-.9.8v1l1.9,1.5,2.5.7,2,2.2.7,2.2-.2,2-.2,2.2-.7,3.2v1.2l-3,.8-2.7,1.3-1,1.3,1,1.7-1.7,1.3-.7.8-1-.2-1-1.5-1.7-1.7-1.7-2.3-1.2-.8-2.4-2.7-1.2-1.4-2.2-.8h-2c0,.1.2,1.2.2,1.2l1.4.8,1.7,1.2,1.8,2.8,2.2.8.7,1.2-.7,1-1.5.7,1.7,1.7.8.3,1.2-.5.9,1.5v1.2s0,1,0,1l-1.7,1.2-1.2.8-2.1,1.3-2.7,1.8-1.9,1.5-1.7,1.3-1,.9-1,.3.7-1.7v-1.5l-1.5-.5-1.9-.3-1-.5-.7-.7-.5.5.5,2,1.9.5,1.4.9v2.8l-4.1,3.5-1.9.5-1,1-.2,1.2.7,1-.3.7-1.2,1-1.9,1.8-1.9,2.3-2.7,2.3-2.7,3.5-2.9,2.5-1.7,1.8-2.1,1.3-2.2,1-1.6,1.3-1.7,1.8-1.7,1.5-2.5,1-.5-1.2-1-.5h-1.2s-1.9-.2-1.9-.2l-.8.2-.5-1.2v-.8c-.1,0-.1-.8-.1-.8l-.2-.7.7-2.2-1.2-1.7-2.2.8-1.7,1-1.2-.2-.8-.3-.2-1.7-1-.5-1.4-.8-1-.7,1.2-2.7-1-.5-1.2,1.2-.4.5-.4,2.5h-.8s-.3-.9-.3-.9l-.7-.7-.7-1.5-1.5-.7-2.1,2.3-1.4,1-1.2-.7v-2.2c-.1,0,0-1.7,0-1.7l1.2-1.2.7-1.2,2.2-1,4.7.5,2.5-2.2,1.2-1.3.5-2.2,1-2,2.7-2.5.7-.7.7-1.3.9.7.3-1.5,4.4-.5,1.5-.2,1.4.9.3-.7-.8-1.4-1-.3-1.4-.3-1.7.3-2.4-.4-.3-.5-.3-.8-.3-1.2-.3-1.2-1.5-.3-1-1.2-1-1.2-.5-.7-.9-1.2-.2-1-.8-1-.5-1.2-1.5-.7h-1.4c0,.1-1.2.1-1.2.1l-.3-.8.7-1h1l1.9.2,2,.4,2.5-2.5-.2-.7-1.2.2-1,.3-1,.7-1.4.5-.7-1.3-.5-.9-.5-2-.3-1.7-1-1.7-1-.7-1.2-.5-.9-.5-1.5.3-1.2-1.2-1.2-.7-.2-1,.5-.5.9-.7,1.2-.5,2.4-.3,2.4-.8,1.7-1.3.2-1.7h-1.5s-1.7.3-1.7.3l-1.2.2-1.7-.2-2.5-.4-1.4-.2h-1l-.9,1.2-.7,1.3-1.5,1.5-.7.3h-.7l-.2-.8-.2-1.4-.3-1.2-1.5-1.7-.7-1.2v-3.8c-.1,0-.3-.2-.3-.2h-1l-.7.7-.5,1.2v1.9l.2.8.2,1,1,1.4,1,1.3.2,1.7-.5,1-.2,1v1l.7,2.2.5,1.8-.5,1-1.2,1.5-1.2,1.4-.4,1.3.3.7.3,1.3,1.2.5.9-.7.5-1,.5-1.7.5-.5.8-.5.5-.3.3-1.3.4-1.2.3-.2.8.5.4.7.5,1.9v2.3c.1,0,.6,1.7.6,1.7l.9.8,1.5.7,1.3,1.8.7,1.4.9,1.3.7.3,1.2.7.5,1.2.5.8v1l.3.8,1.5,1.5,1.7,1.2.2,1.7-1.2,1,.3,1v.7l.3,1.2-.7,1.4-.9.7-2.4,1-.7.7-.5,1-.9.8-.9.3-1.2.8-.8-.2-.5-.3-.7-.3-.7-1-1.2-1-2.2-.7h-2.1s-1.5.6-1.5.6l-2.4,1.2-1.7.2-1.6,1.8-.7,1.2-.2.7.3,1.2,1.4-.3.9-1.3.7-.3,1,1.7.3,1.9.2,1v1.2l.3,1,.5.7,1.5,1.7,2.2,2.3,1.4,1,.7.5-.5,2.2.9.5,1-1.5,1-1.7,2.9-.6,1-.2v2.2s2,.9,2,.9l.8-.5,1.2.5,1.2,1.5h1.5l1,1.2.7,1.5,1.5.2,1,1-.2,3.5-1.5.3-1.9-.3-1.2.2h-1.9l-1.5-.4-.7,1-.4,2.5.2.7.7.2,1.4-1.2,2.7-.5,1,.2.2,2.6-.2,1-1,.8.5.3-.2,1-1.4.7-1.9,1-1.7.3-1.7.7h-.8s-.7-.5-.7-.5l-1.4-.2-1,.3-1.5.7-2.4.3v2.3c.1,0-.9.8-.9.8h-1.3l-2.4.8-1.9,1.2-1.7,1.5-1.7.5-1-.2-1.2-.7-1.4-.9h-.9l-.7,1.5.2,1.4-.4,1.2-.9.5h-.8l-1.5.5-1.7,1-1.4.3-1.5.2.3,1,.9.4-.5.5-1.9,1-1.2.2-.7.8-2.4,1.7-4.1,2.6-1.5.2-.9,2.4-2.1,1.7-.8,1.3-1.1,2.6-1.2,1.4-1.2,1-2-.2-1.4-.5-.7-1.5-.9,1,.5,2.3-.9,1.7-2.4.8-1.7,1-1.2-.5-1.2-1-1.8-3.8-1.2.2v2.3c.1,0-.4,1.7-.4,1.7l-.4,1,.7.5,1.7.2,1.4,1.2-.7,1.3-1.2,1.2-2.9,1-1.9,1.3-1.9,1.8-3.9,4.2-7.9,7.4-.7.5-.9.2-.3-.2-.5-1-.3-.4-.9-.7.4-.8-.3-1.2-.5-.2-.7.5-.7,1-.2,1.3.5,1.8-.4.9-.3,1,.7,1,.2,1-1.2,1-2.4.8-1.4,1-1.4,2.2-1,2.6-1.2,1.7-1.7.8-1.9,1.2-2.2,1.5-1.2,2.3-1,2-1.6,1.2-2.5-1-1.2.2-2.1.3.5.8,1.2,1.4.5.8,1.2-.5,1.7.3-.5,1.5-1.7,2.5-1,2.2-1.6,2.8-2.1,2.3-1.9,2.5-2.7,2-2.4,2.8-2.9,3.5-2.7,3.8-1.4,1.9-1.4,2.3-.9.5h-1l-1.3-1.5-1.5-.7-.7.2.2,1.2,1.2,1.7,1.7,1.5.3,1.5-.5,1.5-1.2.8-.9,1-1.2,2.3-.5.7-.8-.4-1.5-.5-2-.9-1,.2-.7.2-.3.5,1.2,1.9,1.5,1,1.4,1,.8,1.2-.2,1.2-.2,1-1.9,3-.5.7-1.2.2-1.2.3-.3.8-.2.8.7.4,1,.5-.5,1.2-.2.8-1,3-1.4,3-1.4,3-1.8,5.5-1.1,6-.3,3-.9,2.5-.9,2.3-.3,1.2-1.9,1.3-.3.2-2.1.8-1.7.8-2.5.7-1-.9-.7-1.7-.2-2.7.5-3.2.2-2.5-.5-3.7.2-2.8-.3-3.3v-3.7c-.1,0-1-3.2-1-3.2l-1.9-1.5-1.5-3-.8-2.5.2-2.2-1-1.8-.8-1.4-.8-2-1.9-5.2-.7-.2h-.5c0,0-.4,0-.4,0l-.7.2-.7.7-.5,1-.4,1.8-.5,2.2-.2,2,.3,1.5,1.4.5,1.7,4.7.8,3.3.7,2.7v1.5s1,2,1,2l.7,2.2,1,4.8.8,5.5.5,2.6.3,2.7v1.9c.1,0,.5,2,.5,2v1.7l-.2.7-.2.8-1,2v1.2l.3,2v2s-.9,3-.9,3l-.8.7-1.1,2-.4,5,.8,1.7-.3,2.2.7,2-.2,2.3-.7,1.7-1.9.8-1.7,1.3-1.2,1.7-.5,1.5-.4.7-.9,1.8-1,3.2-1.2,2.6-1.9,2.8-1.9,2.6-1.7,1.2-2.1,1.2-1.9,1-1.7,2.3-1,.3-1.5.8-.2.3-.2.8-.2,1.2,1.9,1.3,3.7.7-.4,1.7-1.4.8-2.2-.5-2.5-.5-1.7-.4-2.7-.7-3.5-1-3-1.2-3.7-1-3.9-1.2-3.2-.5-4.8-.5-5.8-.5-3.5-.3-3.4-.2h-4.4s-2.5.3-2.5.3l-2.9.8-4.2-.2-4.9,1-1.4-.5v-1.2l3.2-.7,3.4-.2,3.6.2,1.2-.8.3-.7-.3-.5-.5-.2-1.7-.4h-1.5l-1.7-.3-.2-.5,1.6-2-.2-2.3-1.4-1.7-.8-2.5-1-1.2-3.6-.5-.5.3.2.7,1.7,1,.8,1.8,1.4,1.4-.2,2.3-2.2,1.1-2.6,1.7-2,2-.4,1.8h-3.5c0,.1-3.2.3-3.2.3l-2.4.5-3.5.3-3.7.5-4.6.6-3.9.7-3.2.3-4.4.8-2.7.5-4.6.5-.7-.2-.2-.8,1-.5,2.9-1,.5-.8v-.5l-.2-.5-.7-1.2,1-1.2.4-1.7.5-.5,2.5-.7.9-.8-.2-.7-3.9.5-.8-3.5v-2.8s-1.3-.4-1.3-.4l-.4,2.2-1.2,1.3.7.7-.5,1.7-.5,1.5v.5l.8.7-.5,1.3-.7,2.2-1.6,1.2h-1l-1.2-.2-.7-.8-1.2.3,1.5,2.3-.2.8-1.4.2-2.5.2-2.4,1.3-2.9.5-2.2.5-2.5.7-3,1-4.3.5-5.1,2.2-6.1,1.8-7.8,2.5-6.6,2-1.9.7-1.2.7-.4,1.7-.3,1.4-.2.3-5.6-5.5.7-1.5,1.4-.7,3-.2,1.9-.6.7-1.2-1.2-.7-2.5-.2-3,.5-1.7,1.8-1.1.9-22-22.2-32.6-32.8-6-6.1-90-92-.4-.5-20.1-20.3-.9-.9-61.4-61.8-33.6-33.3-3.3-3.3-23.5-23.2-41.3-40.9h-3.7c0,0-5.4-.2-5.4-.2l-11.2-.3-55.2-1.1-15.6-.3-71.4-1.6-32.7-.8-37.7-.8-35.4-.7-35.2-.7-35.8-.8,2.4-23.2,2.1-19.8-17.1-24.7-5.9-8.5-7.4-10.7-4.8-6.7-8.8-12.3-1.9,1.1-30.8,20.3-1.1.7-.8-1.3-.5-.5-.6-.9-.6-.8-.8-1.1-.6-.9-.6-1.1-.2-.9-.3-1.2v-1.9c.1,0,.3-2.4.3-2.4l.4-1.7.4-1.3.4-1.3.3-.9.3-1.1.6-.7.5-.5,1.5-.9.5-.3h.8c0-.1.7-.5.7-.5l.5-.7.2-.6v-.9c.1,0,.1-1.5.1-1.5l-.5-1.9-.2-1-.5-1-.8-1-.5-.5-.9-.3-.7-.2-.7-.3-.3-.4-.3-.8v-1.1s.1-1,.1-1l.5-1,.8-1.6.9-1.2-7-.6-34.1-2.8-9.9-.8-34.2-2.5-11.7-.8-25.6-1.8-20.7-1.3-30.5-2-19.4-1.3-7.2-.5-17.5-1.1-32.1-2.2-13.5-.9-15.6-1.1-54.4-3.8h-1c0,0-18.3-1.2-18.3-1.2l-21-1.4-.8.2-1,.2h-.7c0,.1-.7.6-.7.6l-.5.2-.5.2-1.4.5h-.7c0,.1-.9.3-.9.3l-.5.2-.6.3-.8.5-.9.5-1,.2h-.8s-1.1,0-1.1,0l-1.3-.8-.9-.3-.7-.2-.9.2-.8.2h-.7c0-.1-1-.4-1-.4l-.3-.3-.5-.3-.7-.3-.7.2-.9.5-.7.7-.5.5-.2.2-.5.6-.5.8-.7.5h-.7l-.5-.4-.8-.7-1-1.2-.7-.8-.3-.9v-.7l.3-.5.5-.5.3-.5.2-.4-.2-.8-.3-.7-.5-1-.4-1.6-.8-1.2-.5-.8-.8-.4-.5.2-.8.4-.8.6-.4.4-.5.7-.3.5-.4.5-.8.4-.9.4-.7.4-.5.3-1.2.7-1.5,1.2-1,1.6-.5,1.2-.2,1,.2,1-.2.8-.4.5-.7.7-.7.8-.7,1-.4.9-.6.8-.7.5-.7.5-.9.2h-1.5c0,0-1,0-1,0l-.7-.2-.4-.4-.2-.7.2-.8.3-.7.5-.7.2-.5-.2-.7-.3-.7h-.7l-1.1.3-.9.3-1.9.3h-1.9l-1.4-.2-1.9,1-.9.6-.3.7-.5,1-.2.7-.5.7-1,.3h-.2c0,0-.4-.4-.4-.4l-.5-.5-.8-.2h-.7c0,.1-.7.4-.7.4l-.7.2-.8-.2h-.5l-.6.4-.6.4h-.3c0,.1-.4.4-.4.4l-.5.3-1.4,1-1,.2h-.7s-.9-.4-.9-.4v-.3l-.4-.8-.8-.9-.8-.4-1.4-.2h-1.4c0,.1-.7.8-.7.8l-.3,1-.4,1.4-.9.8-.7.3-.9,1-.9,1-.8.7h-.7c0,.1-.9,0-.9,0l-.5.2-.9.3h-2.4c0,.1-.9.5-.9.5l-.8.3-1,.3h-1.2c0-.1-1.4-.3-1.4-.3h-.7c0,0-.5.1-.5.1l-1.3.4-1.2.4-1.5,1-1.2,1.2-.7.8-.8.7-.7.3-.9-.3-.3-.5-.2-.5-.3-.5-.7-.2h-.7c0,.1-.9.8-.9.8l-.8.7-.9,1-1,.9-1.1.6-1,.3-1.7.3-1.4-.2-.7-.2-.2-.5-.4-.7.2-.7v-.5l-.2-.5-.4-.4-.3-.2-.5.2-1.4.7-2,1.7-.5.7v1.2l.3.7.3.7.3.8v1s-.2.8-.2.8l-.4.5-1.2,1-.7.3h-.7c0,.1-1.2.1-1.2.1l-.7.2-.7.3-.5.5-.7.5-1,.3h-.9s-1,0-1,0l-1,.2-.9.3-1,.7-1.2,1.5-.9,1.4-.7.7-.6.5-.7.2h-.3l-.7-.3-.5-.2-.7.2-.4.4v.6c0,0-.3.7-.3.7l-.2.8-.2.7v.4c-.1,0-.5.3-.5.3h-.6c0,0-.7.2-.7.2l-1.2.2h-.3c0,0-1.2.3-1.2.3h-1.7c0,0-.7-.2-.7-.2l-.5-.3-.3-.7-.2-.5.2-1,.3-1.5.3-1v-.8c0,0,0-.8,0-.8l-.5-.4-.7-.4-.5.2-7.6,2-1.4.4-13.9,3.7-3.5.9-5.3,1.6-3.2.9h-.3c0,0-9.3,2.7-9.3,2.7l-1.4.4-22.6,6.4-18.8,5.3-11.1,3.1h-6.2s-100.5-1.4-100.5-1.4l-7.6-.3h-.2l-19.8-.2-4.1-.2-17.5-.3-.2,1.7-13.6-.7-9.8-.5-8.3-.5-8.6-.3-4.3-.3h-2.2c0,0-10.4-.5-10.4-.5l-25.2-1.1h-.8s-9-.4-9-.4h-1s-2-.2-2-.2l-21.4-1.1-23.4-1.2-13.7-.7-57.4-3,2-11.6,8.8-55.9,1.9-11.9,1.1-6.9.9-.8.6-.5,1.1-.4.9-.7,1.3-1,.4-.3,3.6-2.4,2-2.1,1.1-.6,2.3-1.2,1.2-.9,1.7-2.1,1.3-1,1-.7,1.7-.3h.9c0,0,1.5.2,1.5.2l1.7,1,.9,1.2.4,1.9.5,2.2.8,1.4,1,1,1.5.7,1.4.6h1c0,0,1-.2,1-.2l1-.3,1.8-.6,2.1-.2h.9s3.2-.1,3.2-.1l2.2.2.7.5,1.4,1,1,.5h1c0,.1.5,0,.5,0l.7-.5,1.3-2,1.4-1h.9c0-.1.8,0,.8,0l2.2.6,1.2.3h.7c0,0,1-.2,1-.2l1.8-.9.9-.9.9-1.2,2.2-1.6.7-.5,3.3-1.1,1.2-.6,1.6-.7,1.3-.6,1-.6,1.1-1,1.5-2.6,1.1-.8,1.5-.9,1.6-.9.7-.8.4-.7v-1.2c0,0-.3-1-.3-1l-1.2-1.6-1.9-1.7-1-1.7.2-1.6,1-1.9.4-1.1v-1.4c.1,0,.2-1.3.2-1.3l-.4-1.2-.2-1.2-.2-1.2.2-.8.4-.5h.3c0,0,2.2-1.5,2.2-1.5l2.7-2.3.9-1.1.9-1.5.7-1.6.2-1.2v-.6c0,0,.1-2.1.1-2.1v-1.8s-.9-2.4-.9-2.4l-.8-2.2-.7-1.3-.7-.9-.3-.6.2-.6.2-.4.8-.3h.3c0-.1.2-.2.2-.2l.8-.5,3.4-2.8,1.2-1.5.9-1.9.8-1.3.7-.5,2.3-1.5,1.5-1.6,1-.8.8-.7.2-.7.4-.5.3-.3,1.1-.4.4-.4.5-.8.5-.8.8-.5,1.1.3,1.7.4.7.2.5-.3.9-.6,1.3-1.3,1.3-1.2,1.2-.6,1.6-.4,1-.3h.5c0,0,.2,0,.2,0l.9-.2.5-.3,1.1-.6.5-.5.6-.6.7-.5.9-.3.6-.6.5-.9.3-1.5v-1.5c0,0,.1-.8.1-.8l.3-1.2.8-.8,1.8-1.9.2-.2,1.6-2.2,1.9-1.7.9-.3h1c0,0,1.5-.3,1.5-.3l1.9-.3.9.2,2,.5h1.5c0,0,6.9-1.6,6.9-1.6l1.7-.9,2.1-1.7,1.2-1.3.5-.6.3-.3.9-.7,2.1-1.2,2.7-1.5,1.8-1,1.6-1.4.8-1.1.7-.5.9-.5,1.9-.6h.8s.9,0,.9,0h.5s.2,0,.2,0l1.4.7.5.3.5.2.8-.2,1.3-.5h.5c0-.1,1.2-.2,1.2-.2l3.8.4h1.1c0,0,.5,0,.5,0l1.4-.5,1.5-.6,1.5-.2.7-.2,1.1-.3,1,.2h1.4c0-.1.7-.2.7-.2h1.3c0,0,1.8-.1,1.8-.1l3.5.2,1.5.3,3,1h.2s1,.2,1,.2h1s.4-.2.4-.2l1.2-.5,2.7-.7,1.9-.4,1.5-.4,1.3-.9.5-.4.7-.3.6-.3.9.3.6.2,1,.5.8.7v.2c.1,0,1,1.1,1,1.1l1.1,1.4,1,1.1.8.7.9.2h1.2s1.5,0,1.5,0h1.5c0-.1,1.3-.2,1.3-.2l1,.2,1.9.4.7.2h.8c0-.1,1.6-.3,1.6-.3h2.4s2.9.2,2.9.2l1.5.3,1.8.8,2,.3,1.9-.2,1.7-1,1-.5,1.1-.8,1.6-1.8.2-.2.6-1,1.2-1.9,2.6-3.1,1-1,1.2-1.2,1.2-.8,2.2-2.5,1.4-.9h.7c0-.1,3,0,3,0l1.7-.2,2.8-1.3.8-.7.8-.7,1.2-.6,2.4-.5,1.1-.2,1-1.1,2-2.3,1.3-.9.7-.5,1.2-.5,1.5-.4,1.5-.4,1.7-1.2.7-1.1.8-1.2.3-1.2.9-1.3,1.6-1.2.9-.6h1c0,0,.6-.2.6-.2l2-.4,2.5.3,1,.5,1.2.9.4.4.6.6.9,1.1.9.2h1c0,0,1.2-.5,1.2-.5l1.3-1.1.9-1.9.8-1.6.7-1.2.7-.6,2.2-.7,1-.3.9-.8.5-.5.5-.8v-.9c.1,0,.3-.7.3-.7l.5-.4.7-.4.9-.4h.2c0-.1.7-.6.7-.6l.5-.6v-1.4c0,0,.1-.7.1-.7v-.9c0,0,.7-1.1.7-1.1l.3-.7.2-3,.7-1,.6-.9,1.8-1,1.4-1.2,1.1-.6,1.6-.2,1.5.2,2.3.3,1,.5.7.3h.9c0,0,1.4-.7,1.4-.7l1,.2.7-.3.9-.3.5-.4.9-.4h.8l1.7.8,1.4-2.7.5-.9,1-1.9,2.5-2.2.5-1,.5-2.2.3-1,.6-.3,1.4-.6.9-.3,2.2.3,1.9-.2,1.1-.5,1.2-.2.9-.2.8.2h1.5c0,0,1.3-.6,1.3-.6l2.5-1,3.2-2,3-1.8,1.9-1.2,1.2-.5,1.2-.4.8.2,1,.3.7.2,1,.2h.7c0,0,1.7-.2,1.7-.2h.7c0,0,.5,0,.5,0l4.4.8,1,.2,1,.4.7.5,1.4,1,1.3.4h.9c0,0,1.3.5,1.3.5l.7.3,1.6,1.2,1.1.5.8.2h.9l.9-.3,1.5-.9,2.4-2.5,1.9-1.6,1.2-.8,1-.7.7-.9.5-1.2.2-1.2,1-2.8,1-1.5,2.5-2.6,2.6-2.2,1.3-1.6.9-1.9,1.4-.7,1.7-.5.6-.2.2-.7v-4.1c0,0,0-1.5,0-1.5l-.2-1.3v-1.2s.2-.8.2-.8l.2-.3,1.1-.4h2.5s.9,0,.9,0l.7-.6,1.3-1.4.2-.5v-.8c-.1,0-.5-.3-.5-.3l-.3-.3h-.2c0,0-1.3-.8-1.3-.8l-.3-.7.2-.6.6-1,.5-.9v-2.3c0,0-.7-1.4-.7-1.4l-1.6-4.1-1.6-3.4-.3-1.2-.4-.8v-.7l.5-.2.5.2,2.2.9h1.2c0,0,.9-.4.9-.4l.4-.2.2-.8-.2-1.9.3-1.2.2-.9.5-.3,1.4-1.1,2.5-.7,3.4-1,1.9-.3,2,.4,1.5.8,1,.7,1.9,1.4,2.4,1.3,1.5,1.3,1.1,1.1.8,1.2.6,1.9,5.8-.8-.2-2.5v-1c0,0,.4-1,.4-1l.7-.9.9-.9,1.7-1.4,1.2-1,.6-.8.3-.9.4-1.1.2-.6.2-.4.7-.8.7-.9.4-1.1-.3-.9-1-2.7v-1.5c0,0,.1-.9.1-.9l.3-1.2.8-1.7.5-.5,1.1-.9,1-.6.8-.5,2.2-.6,1.4-.4,2.4-1.3,2.2-1.3,2.4-1.6,1.2-.6,3.3-1.6h0c0,0,.4-2.1.4-2.1l7.3-3.4,1.5-2.3,4-2.2,3.9-2,3.2-.6,2.5-2.1,2.1-.5,1,.7,2.3,2,1.5,1.4v2.2c0,0,0,.2,0,.2l1.3.9,3,2.4.3.5,3,1.4.3,1.2-2.6,1.9-1.5,1.7v2c0,0-1.8,3.5-1.8,3.5l-1.7,1.8.3,3,1.6.6.9,1.8.2.9-.2,1-1.1,2.9-.3.8v.9c0,0,.5.5.5.5l1.4.5,4.1.6,2,.3.8.4.7.3.4.5.7.8.6.7.8.6.9.4h1.1s1.9-.7,1.9-.7l.5-.4,1.3-1.1,2.3-1.3,1.2-.7.7-.5.7-.3h1.1c0,0,1.8-.6,1.8-.6l.7-.3,2.2-1,2-.5.9-.6,1.3-.9.9-.9,1.8-1.9.5-.5,2.2-2.1,1.2-.8,1-.7,1.8-.8h.3c0-.1.2-.4.2-.4l2.2-1.1,13.7-23.6,1.9-3.4,1.2-1.9.9-.8,2.2-1.7,4-2.1.8-1,.6-.7.3-.4.6-.2.7-.2,1.3-.4,1.6-.4.9-.8,1.1-1.3.7-.4.9-.3h.7s2.6.2,2.6.2h1.3c0,0,1.6-.1,1.6-.1l1.1-.4,1-.4,1.7-.6,1.7-.8,3.4-1.6,2.5-1.7h1c0,0,.8,0,.8,0l.8.3,1.2,1.2h.2c0,.1,1.2,1,1.2,1l1.2.3h1.2s.4-.2.4-.2l.7-.6.6-.8v-.2c.1,0,.7-.8.7-.8l1.1-.3h.9c0,.1.9.3.9.3h.5c0,0,.9.2.9.2l.5-.3.7-1,.3-.7.3-.8.6-.6,2.1-1.4.6-.8,1.9-2.3.6-.7.2-.3.9-.4h.7c0-.1,1-.2,1-.2l1.3.4,1.5,1.2.7.8.8.7.9.2,1.5.4,1.1.8,1.2.5,3.4.6,2.6-.3,1-.3,1.8-.5.8.4.5.7.5,1.9,1.2,3,1.2,3,.4,2.3.6,2.2.4,1.1.3.6.9.5.8.4,1.3.2h.9l3.1-.3,5,.4h.2s2.5.4,2.5.4h.8c0-.1,1.3-.7,1.3-.7l.9-.8.9-.7,2.2-1.1.7-.8.5-.6.5-1.2.5-.8.9-.3.9.2,2.2.8,1.4.3h.9l.9-.2.6-.8,1.2-1.6,1.7-3.9,1.2-2,.3-.5,3.3-6.6,22.1-36.8,4.2-7,1-1.7,1.3-2.1.7-1.1.9-.8.6-.5,1-.7,2.1-1.1,1-.3,2.4-1,.9-.6,2.2-1.9,2-2.6,1.2-1.6,4.3-3.1,3-2.1,1.4-.6,1.4-.6,1.1-.5,1.2-.3,3-.7,1.5-.3,1.8-1.4.7-.6,1-.7.3.2.4.3.7,1.7.5,1.2.2.6.7.6.7.3,2,.7,1.2.9,1.1.8.9.2,2.3.5,1.6.8,1,.2.9.2,1.1-.3,1-.3,2.1-.6,1-.3,1.2.2h.6c0,.1.2.2.2.2l1.1.5.7.3h.9s.2,0,.2,0l.4-.2.5-.4.4-.8-.5-.9-1.3-.9-1.9-1.4-.7-1.1-.4-1.1-1.4-5.4-.4-.9-.7-1.5-.3-.6v-.7c.1,0,.3-.8.3-.8l.5-.9.2-.4.2-.4.2-.8-.2-.6-.4-.7-.5-1-.4-.4-.9-1-.3-.7v-2.4s.2-.7.2-.7l1.1-1.1,1.7-1.8.2-.2,1.5-1.6,1.4-2.4.4-.8v-2c.1,0,.6-.8.6-.8l.7-.6.2-.6-.3-.8-.6-.9.5-.9.4-.6.2-.4v-.7c0,0-.2-.7-.2-.7l-.2-.8.3-.6.9-1.1.9-.6h.2c0-.1.8-.5.8-.5l1-.4.8-.5.4-.3.2-.8v-1.7c.1,0-.3-2.8-.3-2.8v-3.2s-.2-1-.2-1l-.7-2.4v-1.1c0,0,.3-3.3.3-3.3l-.4-1.3-.9-1.6-.7-1.2v-1.7c0,0,0-.3,0-.3v-.9s.1-1.2.1-1.2l.4-.6.6-.9.7-.8.7-.7,1-1.1.4-.7.9-1.5.6-1.1.4-.7v-2.5l.4-.6.2-.3.2-.3,1.4-.8.4-.2.5-.9.2-.3v-.5c0,0,.3-1.5.3-1.5l-.2-2.2.3-.8.6-1Z"/>
        <path id="_x31_913" class="st0" d="M2554.5,43.2l7.1-.3.6,1.2.5,1.7.5,3.3.3,3,1.7,5.3.6,6.2,1.7,6.5,1.5,4.5,2.3,9.3,2,5.8,2.6,12.2,2,7,1.5,5.4,2.2,8.7,2,6.5,2.5,8.8,1.5,5.5,2,4.4,1.3,2.2,1.4,2.8,1.2,2.8,1.5,3.3.7,1.7,2,5.2,1.5,4.5,1.5,3,3.1,7.5,3.3,8.2,3.5,7.9,2,3.8,2.3,5,2.8,5,3.5,6,3.5,5.5,3.5,6.4,1.7,3,2.7,4.4,2.8,4.5,2.2,4.4,2.3,4.7,2,4,2.7,5.5,4.3,8,3.9,6.2,1.8,3.9.5,1,1,3.3,3.1,6.4,4.2,10.5.3.8,1.2,2.8,4,7.8,2.5,6-1.7,1.8-1.2-.2-1.7-.7.2-2.2v-1.3c-.1,0-1.2-.7-1.2-.7l-1-.2-.5,1.2-.2,1.4-.3,1.3-.9-.3-1-.9-.2-1.5v-1.5l-.7.3h-.9l-.3-1.3.3-1-.7-.7-.9.3h-1l-.4-.3.2-1.3.7-1,1-1-.2-.8-.3-.9-1.4-1.7-.3-1.5-.3-1-1.2.2-1.5-.4-.5-1.2-1-3.3-1.2-4.3-.8-2.5-.5-2.5v-4.7c-.1,0-.1-.7-.1-.7l-.7-.5-1.5-.7-.2-1,.2-.7.3-1v-.7s-.7-1.3-.7-1.3l.4-2.5-1.2-2-1.5-1.9-1.7-2.7-1.2-1.8-.8-1.7-1-1.2-.7-2.3-2-2.7-2-1.7-2.7-.8-2.5-.5-1.2-.5-.7-1,.7-1.4-1.2-2.2-2.5-4-1.5-.7-.7-1.7.5-1.7v-2.2c-.1,0,0-.5,0-.5l.4-1.9-1.2-3.5-1-3.2-.8-3.6-1.7-3.5h-1.4s-2.5,1.8-2.5,1.8l-1.2.8-.9.8-.9.2-1,.3-.3-.5-.5-.7-.7-.2-1.4-.5-1.4-.2-.5-1-.3-1.5-.3-3.7-.2-1.7v-.7l-.2-1v-1.2c-.1,0-.6-2.2-.6-2.2l-.7-3.5-1-2.8-.8-3-.5-2.3-.2-2,.2-.8.7.7.8,2.8,1,3,.7,1.5.5-1.2-.8-3.5-.8-2.8-.5-2.3-.7-3.2-2.2-5.7-.8-2.2-.9-2.8-.8-4.5-1.7-3.8-1.7-4.8-1.2-3.8-1.8-4.3-.2-.5-1.7-.2-1.5-.2-.8-.5-.9-.5-.2-2.2.7-.2,1.7.5.5-1.3-.3-.5-.5-.5-1.3-.9-1.9-.2-1.2-1.5-.9-1-.8-1,.9-3-.3-3.3-.7-2-.7-1.9-.7-.7-1.4-.3-1.4-.5-.7-.5-.2-.8.3-1,.5-1.3.3-1-.5-2-.7-1.5-.8-2.8-.2-1.3-.3-2.5v-2.3c-.1,0-.1-1.4-.1-1.4l-.7-1.3-.9-1-.8-1.4-.3-1.5v-1.4l-.7-2.5-1.2-2.3-.8-1.3v-1.9l.2-1.8v-1.5l-.5-1.4-.7-.8-1.7.2-.9-.5-.7-1,.2-.5,1.2-.5,1.9-.5-.2-.8-.7-1.2-.5-1-.4-.7.4-2.2v-1.2l-1.4.2-.7.7-.7.2-.2-.5-.2-1.2.2-1-.7-.5-.7.2-.7.8-.7.5-.3-.3v-2.7c-.1,0-.6-1.8-.6-1.8l-1-1.4v-1l.5-.7.8.2,1.2.5,1.2-.5v-1.2l-.3-.5-.5-.7-.8-.9-.2-1-.2-1.3-.5-1.5-2.2-2.2-1.2-.2-.7-.5v-.8l.2-.8v-1.5l-.3-1.2-.2-2.5-.2-.8.5-1.2-.3-1.2-.7-1.2-.3-.8.7-1,1.2-.3,1.2-1.2-.3-2.2.7-2-.7-1.7-1.7-2.2-.2-1.7-1.5.3-.3-1.2-1.7,1.7-.5-.2-.3-1.2-.2-2,.4-1.2Z"/>
        <path id="_x31_914" class="st0" d="M2518.9,44.5l5.3-.2h3.3c0-.1.5.4.5.4l1.4,1.5,1,1,1.2,1,1,.3.8.2h.9s.9-.8.9-.8l.3-.8-.3-2-1.2-1.1,12.2-.5.6,1,.7.8-.2,1.5.5.9.9-.5-.2-1.2.7-1.5.5-.3.5.5v1.4s-.5,1.8-.5,1.8v1.7s.1,1.9.1,1.9l.2,1.7.3,1.8.3,2.3.2,2.2.3,2.5-.5,2.2v1.2l.7.3.7.2,1,.5.7.5-.4.8-.7.3-.9-.2-1.4-.3-.8.7-.5.8-.9.8-.7.2-.9-.2-.5-.7-.9-1-1-1.2-1.2-.5h-.7s-.8.1-.8.1h-.5l-1.5.2-1.4-.5-.8-.9-.7-1.2-.3-1.5v-.5l-.5.2-.3.3-.5,1-.3.7-.7.5h-.7l-.5.2v1.3l.2.8v.7l-.2.7-.9.5-.7-.8-.9-.7-1.4-1.7-1.2-1.7-.3-.9v-.8l.7-.5.7-1.3.2-1,.2-1.2.3-.5,1.4-1,.9-1,.2-1-.3-.7-1.5-.5-1.5-.2-1.9-.4-.5-.3-1.2-.7-.8-1-.5-1-1.2-1.8-1.4-1.5-1-1.2-1.1-1.2Z"/>
        <path id="_x31_915" class="st0" d="M2518.9,46.7l.7,1.2-.2,1.2-.7.8h-.5l-.7-.5-.3-1v-1l.7-1,1,.4Z"/>
        <path id="_x31_916" class="st0" d="M2556.3,51.3l-.7-.7v-.8l.2-.7.9-.5,1.2.3.3,1,.2.5,1,1,.2.7-.2.5-.5.3h-.5l-.7-.2-.7-.3-.5-.7-.2-.5Z"/>
        <path id="_x31_917" class="st0" d="M2552.6,50.7l-.2-.8.2-.5h.8l.3.5.2.7-.2,1,.2.8.2.7.2.7-.3,1h-.9l-.9-.5-.5-1,.2-.8.3-.3.3-1.3Z"/>
        <path id="_x31_918" class="st0" d="M2556.1,53.7l.9-.3.5.5.3.5v1s-.7.7-.7.7l-.9.3-.7-.3-.2-.5.2-.8.5-1Z"/>
        <path id="_x31_919" class="st0" d="M2502.5,57.5l1-.5,1.4.4,1.2,1.8,1,.7,1.5-.6,2.2-.2.5,2-2-.5-3.4.8-1.2-.5-2.2-3.3Z"/>
        <path id="_x31_922" class="st0" d="M2553.8,73.6l.3-.7.3-.3.7.2v1.8l-.2.5-.7.5-.7-.2-.2-.7.4-1.2Z"/>
        <path id="_x31_923" class="st0" d="M2560.6,74.4h.3l.8.7.4.8-.5.3-1,.5-.2-.9v-.7l.2-.8Z"/>
        <path id="_x31_924" class="st0" d="M2556.5,76.6l-.7-.7.2-.7.7-.2.8-.2.3.8-.2.7-.7.3-.5-.2Z"/>
        <path id="_x31_925" class="st0" d="M2566.9,92.3l1,.3.5,1.2-.9.3v-.7l-.7.8-.7-.5v-1.2l.7-.3Z"/>
        <path id="_x31_926" class="st0" d="M2561.8,97.3l.2-.8.5-.5,1.4.3.2,1-.5.7-.7-.2-1-.5Z"/>
        <path id="_x31_927" class="st0" d="M2535.8,98.6h1.4l.3,2.3-.7.3-.5-.7-1,.2-.5-.5.3-1,.7-.7Z"/>
        <path id="_x31_928" class="st0" d="M2565.3,102.3l1.2.3.5,1.3-1.4.5-1-.2.3-1.3.4-.7Z"/>
        <path id="_x31_929" class="st0" d="M2573.1,124.5l.5,1-1,1.2-.5,1.2.7.9.8.5,1,.3.9.5v1.4s-.7.8-.7.8l-.5.2-1,.3h-1s-.7-.9-.7-.9l-.7-.7-.5-1.4v-2.6l-.7-1v-.7l1.2-1.2,1.2-.3,1,.5Z"/>
        <path id="_x31_930" class="st0" d="M2568.8,137.5l-1.5-1.2.4-1.7h1.2l1,.2.3,1.2-1.4,1.5Z"/>
        <path id="_x31_931" class="st0" d="M2574.7,138.1l-.7-.8.7-1.2h1c0-.1.7.5.7.5l-.5,1-1.2.5Z"/>
        <path id="_x31_932" class="st0" d="M2321.2,144.9l.7.7.2,1.3.7.7.7.9.5,1.7v1.3h-.7l-.8-1.5v-.8l-1.5-1.4-.3-1.2.7-1.7Z"/>
        <path id="_x31_933" class="st0" d="M2572.7,140.8l1,.7v.9h-.5l-1.2.3v-1.2c-.1,0,.7-.7.7-.7Z"/>
        <path id="_x31_934" class="st0" d="M2569.4,145.6h-.7l-.8-.7-1.7-.7-.5-.7.4-2.2,1.2.3,1.2.7,1.4.8.3,2-.7.3Z"/>
        <path id="_x31_935" class="st0" d="M2565.5,147.1l1.9-.3-.2,1.5-.9.3-1-.5.2-1Z"/>
        <path id="_x31_936" class="st0" d="M2567.9,149.8l.7-.5,1.4.2,1,.8.3,1.3-.7.7-.7.2-.7-.7-.5-.8-.7.5-.2-1.7Z"/>
        <path id="_x31_937" class="st0" d="M2585.1,156.4l-.4.2-1.2.5-1-.3v-1.3l.5-.5.9-.2.5-.2.4.5.3,1.4Z"/>
        <path id="_x31_938" class="st0" d="M2576.3,175l-.2-.8.2-1.3-.3-3-1.4-2.2-.3-1.5,1.2.2,1.4,2.3,1,3.3.3,2.6-.5.3h-1.4Z"/>
        <path id="_x31_939" class="st0" d="M2617.9,229.2l-.7.3-.5.2-.9-.9-.5-.8.2-1,.7.2.7.2-.4.5,1.5.7-.2.7Z"/>
        <path id="_x31_940" class="st0" d="M2608,228.3l1.2.3.5,1-1.2.7-1.4-.5-.7-.2v-.7l.2-.8,1.4.2Z"/>
        <path id="_x31_941" class="st0" d="M2616,232.7l.3-1.2h.7l1.2.2.7,1-.3.2-.5-.2h-2Z"/>
        <path id="_x31_942" class="st0" d="M2610.6,242l-.5-1.2.9-1.2.2-1.4v-2.2l.2-1.3v-1l.5-.3.8-.2,1.2,1.2,1.2.9,1.2.2.7,1.5.3,2.7.5,1,1.2.3.2-1.3v-2l1.2-.5,1.1-3.2.8.7.3,3.8-.9,1.7,1,1.3v2.7h-2.2s-.9,1.3-.9,1.3h-.3s-.4-.2-.4-.2l-1-.8-.7-.7-.8-1.2-1-.3h-2.2l-1.4.2-1.2-.5Z"/>
        <path id="_x31_943" class="st0" d="M2546.1,260.8l1.5-1.2,6.3-3.4,6.5-2.3,1,.2-.5,1.8.3,1.2,1.9-.7,1.4.4,1.5-.7-.7-1.2.2-1.2,3.4-1,.3.7,1,1.5-.5,1.5v3.3s-3.1.5-3.1.5l-2.1,1.7-4.8.6-1.5,3.5-2.7,2.3-1.4.5-4.5-5.2-2.9-1.7-.7-1.2Z"/>
        <path id="_x31_944" class="st0" d="M2612.7,268l.2-1.3,1.2-1,2.1-.2h1.4s1.7.2,1.7.2l2.2.3,2.3.9,2.5,1.5,3,1.7,2.9,1.7-.4,2-1.6,2.3-.2,1.8.3,1,1.2.7,1.7-1.2,1.9-.8.7-1.8.7-.2,1,1.3,1.2,1.5,1.5,3,1.7,3.5,2,3.3,1.7,2,1.2,2.7.7,3-1.2.3-1.5-1.2-1.4-1.5-1.3-1.5-1-2.5-2-.4-.7,1.2,1,.7.7,1.5.8,1.4,1.5,1.7,1.5.7,1.5,1.8,1,3v2.2s.8,2.3.8,2.3l1,2.5-.9.8-1.2-.7-2-.9-1.2-.2-1.7.7-2.4-.7-1.5-1.2-1.5-1.4-1.3-3-.7-1.3-.5-.7-.3-1.5-.2-2.8.2-1.7v-2l-1.2-1.4-1.8-2.6-2.2-1.7-2.2-1.7-1.3-2.7-3.4-3.3.2-.2-.3-2.3-3.9-3.7-3-1.2-1.2-2.5v-.5Z"/>
        <path id="_x31_945" class="st0" d="M2645.7,279l.3.2.3.5-.2.7-.7.5-.9.2-.5-.2-.4-.5-.2-.3v-.5s0-.3,0-.3l.2-.5.7-.3.7.3.5.3Z"/>
        <path id="_x31_946" class="st0" d="M2648.5,282.4l.3.7-.4.7-.3.2-.7-.2-.5-.5-.2-.2.2-.3.4-.5.5-.2.7.4Z"/>
        <path id="_x31_947" class="st0" d="M2649.5,285.3l-.2.7-.5.9-.4.3h-.3s-.5,0-.5,0l-.2-.2-.5-1v-.7l.2-.7.3-.3h.7l.3-.2h.3l.4.2.3,1Z"/>
        <path id="_x31_948" class="st0" d="M2632.3,303.9l-.7.7-.5,1.2h-1s-.2-1.4-.2-1.4l.3-1,.5-.5,1.5,1Z"/>
        <path id="_x31_949" class="st0" d="M2634.4,305.6l.9.5v1.5c.1,0-1-.2-1-.2l-.7-.5v-.8l.9-.5Z"/>
        <path id="_x31_950" class="st0" d="M2637.3,311l.4-1.2,1-.3,1.2.2.3,1-.7.2-.5-.5-1.7.7Z"/>
        <path id="_x31_951" class="st0" d="M2643.9,309.3l1.2.2,1,.5-.2,1.5-.7-.3-1.2.3-1.2-.5-.2-1,1.2-.7Z"/>
        <path id="_x31_952" class="st0" d="M2654.1,315.2l-1.4.5-.8-.9-.3-.5.5-.5.4-.3,1-.3.7,1.2v.8Z"/>
        <path id="_x31_953" class="st0" d="M2663,318.4l.8.7-.3.5-.5.2-.7-.2-.3-1.2h1Z"/>
        <path id="_x31_954" class="st0" d="M2671.8,321.8l2.1-.8h1.2s1.9,3,1.9,3l1.3,2.8,1,1.5,1.2,1.3,1,2.5,1.4,2.7,1.2,2.8,1.2,3.2,1.7,3,1.3,3.5,1.8,6.5,1,4.2.6,3.7.7,4.2.8,3,.7,3.3,1,2.8.3,2.2.8,2.8.3,2,.3,1.7.2.9.3.8v3.5c.1,0,.5,2.6.5,2.6v2.5s-.4,5-.4,5v4.7s-.8,6.2-.8,6.2l-.5,3.2-.7,3.2-.2,2.6-.9,4.2.2,3.2-.9,9.2-.2,7.3-.2,6v3.8c.1,0-.8,10.3-.8,10.3l-.9,4.5-.7,2.3-.9,2.8-.2,2.3-.2,1.7-.4,1.8-.2,2.5-.2,2.5-.4,3.3-.4,4.2-.7,3.8-.5,5.5-.7,4.5-.7,2.6-.9,3.8v3.7l-.2,3-.9,3.3-.3,2-.5.8-1.4.3h-1.7l-3.6-1-2.2-.3-3.4-.9h-2.7c0,.1-2.9.6-2.9.6l-2,.8-2.5.6-2.5.7-2.1.3-2.9,1.2-2.1.5-1.9.7-2,.5-1.9,1-2.2,1.2-2.7.8-2.4,1-2.5,1-3.7,1.7-4.8,2.3-4.1,2-1.4.8-1.5.2h-1.4l-1.2-.7-.9-1,.9-1.3,1.5-1.3h1l1.2,1,.7-1,2.2.5,1.7-.7,1.5-.7,1.4-1.5.4-1.2,1.7-1.5.7-1.4-.2-.5,1,.4.2-1.9.5-1.3,1.2-1.3,1.6-1.2v1s1.2,2.2,1.2,2.2l1.7,1.9h.7l1-.7,1.4-.8,2.1-1.3,2.5-1,1.2-.3,2.1-.8,1.4-1,1.9-2,2.4-2.5,2.5-1.7,2.4-1.7,1.4-.8.5-1.3-.2-1.7,1-.7,1.4.8,1.2.2,1.5.4,2.1-.7,2.5-.3,6.8-2.1,2.5-.2.9-1.3,1.4-3,.4-3.3.5-2.7.7-2.8.2-3.2v-2.8l-.5-2v-2.2c-.1,0-.3-2-.3-2l.5-1.8-.2-1.5v-1.5l.7-1.5.7-1.7,1.2-1,.9-1.8.9-4.5.5-2.6-.3-6.2.7-3.8v-3.2l.4-3.2.2-1.8v-1.2l.5-2.2.2-5.5v-4.7s.6-8.7.6-8.7l.3-1.9-1-1.2-.2-1.5,1.2-1.3v-1.2s-1.2-1.5-1.2-1.5v-1l.4-1.7.9-1.7,1-.2v-2l.5-1,.5-3-.3-1,.5-2.5.4-8.3-.2-3-.3-4.7-.3-1.5v-1.7c-.1,0-.3-3.5-.3-3.5l-1-3-1.3-2.5-1.3-3.8-2-5.3-.3-3.3,1-2.5v-2s-1-1.7-1-1.7l-2-1-1.4.8-1,.8-.2-.2-1-.9-.3-.3,1.7-2.5.7-.8.2-1-.9-.2-.5-1.5-1.2-1-.3-1.5.2-2.3-1-1-.2-2-1-1.4v-1.3l-1-.7-.3-1-.2-1.2v-1s0-2.8,0-2.8l-1.5-1v-2s-1.5-2.5-1.5-2.5l-1.9-2.7-.5-1.5Z"/>
        <path id="_x31_955" class="st0" d="M2581.7,400.3l-.2,1.7-.3.2h-.5s-.2-.4-.2-.4l-.7-.2-.2-1,.9-.5,1.2.2Z"/>
        <path id="_x31_956" class="st0" d="M2689.5,406.6h1.4c0-.1-.2.5-.2.5l-1.4.8-.7-.7.2-.5.7-.2Z"/>
        <path id="_x31_957" class="st0" d="M2679.1,435.9l-.9-.2-.2-1.5.9-1,1.2.7-.4,1.2-.7.8Z"/>
        <path id="_x31_958" class="st0" d="M2515.2,467.9l1.2-.7,1,.7.2.7-1,.8-1.5-.4v-.3l.2-.8Z"/>
        <path id="_x31_959" class="st0" d="M2518.5,479.3l.7-1.3,1,.2.2,1.3-.3,1.2-1-.2-.5-1.2Z"/>
        <path id="_x31_960" class="st0" d="M2339.4,487.9l.7-.8,2.2-.2,1.5.4,1.2.3-.7,1h-2l-1.9-.2-1-.5Z"/>
        <path id="_x31_961" class="st0" d="M2413.8,491.7l-1-1v-.7s.2-.5.2-.5l1.5-.8.5.5.7,1.2.3,1.2v1s-.9.2-.9.2l-1.4-1Z"/>
        <path id="_x31_962" class="st0" d="M2352.4,492.6l1.2.2.4.8-1.2.5-1.5-1.2-.3-1,1.5.7Z"/>
        <path id="_x31_963" class="st0" d="M2428.7,490.2l1,.3,2.2.5.7-1,.3-.2.2,1,.4.3,1-.3.7-.7.7.3.4.5-1,.7-.7.5h-1.2l-2.3-.3-1.6.3-1.4,1.2-1.5.3v1.4l-.7.2-.2-1-.8-1-.7-1.5,1.2-.5.8.2.2.7.5.2.7-1.3,1.2-.7Z"/>
        <path id="_x31_964" class="st0" d="M2453.4,500.9l.2-1.5,1.2-1.8v-1.3l-1.2-1.2,1.2-.3,1.7.3.5,1,1.4,1,.7,2,1.3,2-2.2,1.7h-.8l-1.4-.7-1.4-.3-1.2-.8Z"/>
        <path id="_x31_965" class="st0" d="M2377,499.3h1v.5l-.5.8-1,.3-.9-.2-.9-.3-.3-.3-.2-.5.5-.3.7-.2.7-.3.8.5Z"/>
        <path id="_x31_966" class="st0" d="M2653,495.9l-.5,1-1.2.2-.8-1.4.9-.5.9.2.8.5Z"/>
        <path id="_x31_967" class="st0" d="M2644,496.8l-.7,1-.7.2-.7-.8.7-.5h.9l.5.2Z"/>
        <path id="_x31_968" class="st0" d="M2639.1,499.1l.2.2.9,1-.9.7-.7-.5-.7-.5.2-.3.4-.3.7-.2Z"/>
        <path id="_x31_969" class="st0" d="M2649.5,499l.5.2.5.7-1.5.5-1-1,.5-.5,1,.2Z"/>
        <path id="_x31_970" class="st0" d="M2643,499.3l1.4.5-.2,1-1,.3-1.4-1,.5-.7.7-.2Z"/>
        <path id="_x31_971" class="st0" d="M2635.9,500.6l-.2,1-1,.5-.8-.2.2-1.2-.5-.3.2-.7h1l1.2.9Z"/>
        <path id="_x31_972" class="st0" d="M2678.9,505l.7-.8h1s-.9,2.8-.9,2.8l-.8-2Z"/>
        <path id="_x31_973" class="st0" d="M2657.8,510.8l1.2.2h.5l-.5.7-1,.2-.3.5h-.7v-1l.9-.5Z"/>
        <path id="_x31_975" class="st0" d="M2410.1,544.8l-.7.7-2.3-1.5.3-1,.5-.5.3-.2h1.5s.9.5.9.5l.7,1.7-1.2.3Z"/>
        <path id="_x31_976" class="st0" d="M2610,543.1l-3.9,2.3-5.8,2.3-4.4,2.3-3.6,1.8-4.8,1.8-10.4,5.9-7.6,4.1-9.2,5.9-5.6,3.8-4.4,3.3-5.7,6.3-2.1,2.5-1.7,1.8-1.4.3h-1.2l-1-.2-.9-.5.9-.7,1.9-.7.8-1.3,1.7-1.5.4-1.2.3-1.2.7-.8.7-.7.9-1.2-.3-1.9-.3-5.7,1.2-1.7,1.5-.5.7.3,1,.8,1.9.9,1.7-.5,1.7-1,1.7-.7,2.5-.8,1.2-1.3,2.9-1.7,4.4-2.4,4.1-2.3,2.5-1.7,3.9-1.7,4.8-3.3,2.4-1.8,3.7-1,4.4-1.5,5.4-2.1,3.7-2,3.1-1.7,5.4-2.5,1.4-.8,1-.5-.5,1.8-1.9,2.2Z"/>
        <path id="_x31_977" class="st0" d="M2596.6,543.9l-.7-1.4.3-1.2,1-.5,1,1v1.8s-.7.3-.7.3l-1-.2Z"/>
        <path id="_x31_978" class="st0" d="M2592.7,543.4h.3l1,.3.7.9-.9,1.3-1.2-.2-.7-.7v-1l.7-.7Z"/>
        <path id="_x31_979" class="st0" d="M2589.1,545.7l1,.3-.5,1.7-1.4.2-.5-1,.7-1.2h.7Z"/>
        <path id="_x31_980" class="st0" d="M2521.3,571.8l.2.5-.2.8-1,.7-.5.2-.5-.2-.4-.3-.3-.5v-.8l.4-.5.7-.3.4-.2.3.2.5.2.5.3Z"/>
        <path id="_x31_981" class="st0" d="M2517.8,573.3l.5.2.2.2.2,1-.2.5-.4.3h-1l-.5-.5-.3-.5v-.3l1-1,.5.2Z"/>
        <path id="_x31_982" class="st0" d="M2523.1,574.6v1l-.9.3h-.3l-.5-.3-.3-.2-.2-.5.3-.3.2-.5.3-.2.5.2.5.2.3.3Z"/>
        <path id="_x31_983" class="st0" d="M2525.3,580l.3.7-.4.8-.2.3h-2.2l-.2-.3-.2-.5v-.7s.5-.3.5-.3l.5-.2.4-.3.8.2.5.4Z"/>
        <path id="_x31_984" class="st0" d="M2413.3,587.7l.3.3.5.8-.5,1.2-.7.2-.7-.3-.2-1.2.4-1h.8Z"/>
        <path id="_x31_985" class="st0" d="M2507.9,610.1l-1.2-1,.2-1,.5-1.3.3-1.7,1-1.5.7-.5-.2-.8-.2-.7,2.1-1.2,1.7-1.3.4-1,1-.7,1.2-.3-.2-.7.5-2-.2-1.2,1-1.8.5-.8.9-.3,1.2-.2.5-1.7-.5-.9,1.5-.8h2.2s1.4.7,1.4.7l2.2-1.3,2.5,1.9,4.2.2v2s-2.4,1.1-2.4,1.1l-2.9,2-3.4,2.3-3.1,2.3-2.6,3.3-7.3,5.5-2.6,2.8-1.2.5Z"/>
        <path id="_x31_986" class="st0" d="M2411.2,594.8l-1-1.2-.3-1,.8-.2.5.2.8.3h.7l1,.5-.2.7-.7.7-.8-.2-.9.2Z"/>
        <path id="_x31_987" class="st0" d="M2418.7,594.7l-.2,1.2-.8-.2v-1l.7-.2.4.2Z"/>
        <path id="_x31_988" class="st0" d="M2419.8,597.4l.3-1.2h.9l1-.2v.7l-.5,1.2-.7-.2-1-.3Z"/>
        <path id="_x31_989" class="st0" d="M2435,605.3l-1.5-.5-1.4-.8.4-.8,2-.5h1.7l1.7.5v.8l-.4.5-1.4.8h-1.2Z"/>
        <path id="_x31_990" class="st0" d="M2501.6,610.4l.5-.2-.2.5-.5.3-.7.3-.3-.5,1.2-.5Z"/>
        <path id="_x31_991" class="st0" d="M2456.8,613.3v-1.2s.4-.3.4-.3l.5.2,1,.7,1.4.2,1.7.2.2,1-.5.9-.8.7-.5.7.3,1.5.2,1.7-1,.5-1.4-.5-.8-1-1-1.5-.2-.5.4-.8v-1l.3-1.2Z"/>
        <path id="_x31_992" class="st0" d="M2505.5,611.7l-.3.5-.3.7-.2-.7.3-1.2.9.2.5.3-.5.5-.3-.3Z"/>
        <path id="_x31_994" class="st0" d="M2498.7,613.4l.8,1.2-.7,1.7-.7-.2-.7-.7-.5.2-.5-.5,1-1.2,1.2-.5Z"/>
        <path id="_x31_996" class="st0" d="M2466,615.8l2.3.8.8,1-.9,2.6-1.2,2.8h-1.2c0,.1-.7-.9-.7-.9l.7-1.8-.3-1.2-.7-1-.2-1v-1.5s1.2,0,1.2,0Z"/>
        <path id="_x31_997" class="st0" d="M2498.3,621.4h-1.2s-.5-.9-.5-.9l.9-1.2,1-.8,1.2-1.3.9-1.3,1.4-.5,1.2.2.2,1.2-1.6,1.7-1.9,2.2-1.5.8Z"/>
        <path id="_x31_999" class="st0" d="M2482.6,618.6l.2.2v1.4l-.4.7h-.7l-.9-.2-.5-.5-.3-.5-.2-.5v-.3l.5-.8.3-.2h.3l.3.2.5.2.2.2.5.3Z"/>
        <path id="_x32_000" class="st0" d="M2471.7,620.7v-.3l.2-.3,1.7-.2.3,1-.2.5-.7.3h-.5l-.5-.3-.3-.7Z"/>
        <path id="_x32_001" class="st0" d="M2477.4,622.9h-.8l-.5-.3.4-1.2.2-.5.7-.3.2,1.5v.8Z"/>
        <path id="_x32_002" class="st0" d="M2483.6,622.9l-.3-.7.5-.5,1.2-.5.7.3.2,1-1.2-.2-1,.5Z"/>
        <path id="_x32_003" class="st0" d="M2461.5,624.6l-.5-1.2v-1s.5-.3.5-.3l1.7.2.9.5.8,1.2-.5.7-.7-.2-1.4.8-.9-.7Z"/>
        <path id="_x32_004" class="st0" d="M2488.5,622.5l.8-.3.9,1.2-1-.2v.3l-.7.2v-1.2Z"/>
        <path id="_x32_005" class="st0" d="M2481.1,639.1l-1-.4.2-1.5.7-1.5,1.6-2,1.2-.8,1.4-.5v-1.2l.9-1.2.9-.5,1.5-.5.2-.2.9-1.2,1.7-2.5,2.5-3.3,1.5.5.9.9-1.7,1.7-2.7,2.8-3.1,3.5-.4.3-2.1,1.8-1.2,1.3-1.4,2-2.4,2.3Z"/>
        <path id="_x32_006" class="st0" d="M2482.1,629.8l.9-.2.5,1.3-1.9,1-.5-.5.2-.8.9-.8Z"/>
        <path id="_x32_007" class="st0" d="M2460.6,658.5l-.8-.2-.5-.5.2-.3.9-1,.7-.5,1-.2,1-.7.7-.5.2-.5.2-.7.5-1,.5-.5.7-.5.8-.8.5-.3,1-.7.5-1,.4-1.3v-1l.3-.5.7-.2.7.2.7.2.5-.3.7-.3,1-1.9.7-.8,1-.8.8-.7.5.4.5.3-.2.8-.2.5-.3.5-1.5,1.7-1.2,1-3,3-3.8,4.2-3.7,3.3-1.7,1.3-.9.3Z"/>
        <path id="_x32_008" class="st0" d="M2387.2,757.2l2.2-4.5,1.9-3.7,1.6-2.8,3.1-7.1-1.2-1.2.2-.2v-.7s0-1.2,0-1.2h1l.7.8h1.2l.3-1.3.2-2.2,1.2-.5,1.5-.3.3-.7-.8-1.7v-.8l1.6-1.2,1.2.3,1.2-.2v-1.5s.9-.7.9-.7l1.2-.7.5-.3-1-1.7.3-.9.2-.2,1.5-.3.2-.9.5-1.8,1-.8,1.9-.5,1-1.2.2-2.2.4-2.8,1-.7,1,.5,1-1.2,1.4-1.3-.3-1.2-.7.2-1.9-.2-.3-.9.2-2,.8-.2.9.5.9-.3.3.5,1.4.2,1.5-.8,1.4-1.7,1.7-3,1.2-2.5-1-2.2.5-1-.8-2.3,1.9.5.5,2.6,1.2-1.2,1.6-2.2,1.5-1.7,2.4-4.2v-1.5l1-.3.7.2.7-1.2,1-1,1.9-3,1.2-.5,2.4-2,2.4-2.8,3.7-4.2,4.3-5.1,3.6-3.6,2-1,1,.8-1.4,2.6-1.7,1.9-2.9,3-4.4,5.3-7.5,7.8-2.9,3-3.3,4-1.5,1.9-1.9,3-3.8,5.1-4.1,6-3.6,5.2-8.4,11.4-1.4,2.3-4.1,6.3-6.2,9.5-3.9,7.3-4.3,7.5-3.8,8-.4,2.8-.5,3-.7,3.2-.7-.4-.8-3.7-1.5-2.2-1.4-2.5-1.2-2-.3-2.2.4-1,1,2.3.8.3.9.5.5-.5,1.5,1,1.6-1.7.7-2.3Z"/>
        <path id="_x32_009" class="st0" d="M2433.6,681l.5-1.2,1.7.4-.2,2-.5.2h-1.4l-.2-1.4Z"/>
        <path id="_x32_010" class="st0" d="M2417.6,696.9l.5-.7.9.3v1l-.5.7-.7-.3-.2-1Z"/>
        <path id="_x32_011" class="st0" d="M2419.4,700.8l.2-1.4.5-.5,1-1,1-.5.5.5.2,1.2-.7.7-.3.5-.7.8-1.4,1.2-.3-1.5Z"/>
        <path id="_x32_012" class="st0" d="M2397.8,706.8l.9.3.7.7.2.5-.2.5-1.4.3-1.4-1.2.5-.8.7-.3Z"/>
        <path id="_x32_013" class="st0" d="M2410.9,707.9l1.2-.3.2,1.5-1,.5-.3-.7v-1Z"/>
        <path id="_x32_014" class="st0" d="M2334.6,710.8l.3-.3.3.2-.2.5v1h-.9l-.3-.2v-1l.7-.2Z"/>
        <path id="_x32_015" class="st0" d="M2340.2,712.4l.7.2.3.7-.3.3-.2.3-.2.5-.7-.7-.2-.4.2-.5.3-.5Z"/>
        <path id="_x32_016" class="st0" d="M2338.9,723.8l1,1,.3.7.5,1.7-.5.3-.7-.8-.3-.4-.3-.3-.2-.3-.9-.8,1-1Z"/>
        <path id="_x32_017" class="st0" d="M2401.8,724.5v-.8s.4-.5.4-.5l.5-.3h.9l.5.3v1.2l-1,.2-.2-.3-.7.8-.3-.5Z"/>
        <path id="_x32_018" class="st0" d="M2374.5,730.2l-1.7-.2h-2.2l-.4-.5-.7-1.7.2-1.8,1-.7,1.4-.5,1.2.2.5.3,1.2-.3.5-.5.7.4v.5l.8,2.3.5.7.7.3.9.5,1.4.3,1.7.5,1.7.2h2.5s.5,1,.5,1l-.3.7-1.6.7-.7-.3h-1l-1.4-.5h-1.4l-1.9-.3-1.7-.4-1.5-.3-1-.5Z"/>
        <path id="_x32_019" class="st0" d="M2213.5,754.7l-1-.8.3-1,1-1.4.9-.7,1-1.3,1.4-2.2,1.2-.2,1-.3h1.5c0-.1,1.9-.6,1.9-.6l1.4-.3,2.5-.8,1.9-.3,3.2-1.3,3.4-.7,2.2-.5,3.7-.6,1.7-.2,2.7-.7,2.4-.3,2.2-.5,1-.5,2.5-.7,3.9-.5,1.9-.8,2-.3,2.2-.5,2.2-.3,1.5-.5,1.5-.2,1.9-.6,1.7-.5,2.4-.8h3.7c0-.1,2.2-.5,2.2-.5h.3l2.1-.3,1.9-.2h2.1s2.5-.3,2.5-.3l1.7-.8.9-.7,1.2-.2,2.5-1,3-1.8,1.7.8,2.4-.3,2.1.2,1.4-.2,2-.5,2.9.5,1.7.5.5.8,1.9-.2,1.7-2.8,2.3-.8,2.4.2,2.2.2-.4,1.5.7.7,1.2.7h.7l.3.2,1.4-.8,1.4.5.9-.8,1.9.5,2.3.5,3.1-1,2.5,1.3,2.1,1.4-1,1-4.6.5-3.5-.3-3.9-.2-3-.5h-6.8c0,.1-2,.1-2,.1l-2.1.3-2.4.3-3,.2-2.5.3-2.4.2-2.2.3-2.2.3-2.5.3-4.2.6-4.4.5-2.9.5-3.7.7h-.5l-3.5.6-2.5.2-2.9.5-3.7.8-4.6.5-4.9,1.3-3.7.6-3.4,1-4.4,1.1-5.1.7-3.7,1.3-5.1,1.5-2.5.5-2.5,1.3-1.9.5-2.7,1-2.2,1-2.4,1-2.2,1.5-1.6.8-2.7.8Z"/>
        <path id="_x32_020" class="st0" d="M2386.5,727.2l-1.2.2-.9-.2-1-.2-1.2-.7-.2-.8,1-.5h.8l1.2.2,1,.2,1,.8.3.5-1,.5Z"/>
        <path id="_x32_021" class="st0" d="M2350.5,736.7l-1-1.5.2-1.2,3.5.5h2.4l1.7.7,1.7.8,2.3,1,1.2.5,2.7,1.2,1.9.5h1.4l.7.2v.5c.1,0,1,.5,1,.5l1,.5,1.5.3.8-.8.7.5.2.8.3.4.7.3,1,.3.5.3,1,.9,2.3,1.5,2.7.2.8,1.3,1,.7,1,.3.7.8.3.3.3.4.3.7-.5,1-.5,1.2-.7,1.8-.2-.8-1.2-1.5-1.2-1-1-1.3-1.4-1-2.3-1.5-2.5-1.5-2.7-1.4-2.5-1-2.5-1.2-2.3-.8-4.2-1.9-4.9-1.1-3.2-.7-2.5-.7-.5-.2Z"/>
        <path id="_x32_022" class="st0" d="M2371.2,736.7l.3,1-.2.5-1.2-.2-1.4-1.7.3-.3h.7l1,.2.4.5Z"/>
        <path id="_x32_023" class="st0" d="M2377.3,738.7l-.4.3-.2.5-.7.7h-.5l-.3-.5v-.7l.3-.7.5-.3h.7l.5.7Z"/>
        <path id="_x32_024" class="st0" d="M2205.2,746.7l-.9-.3.2-1.2,1.2.5.4.5v.7s-.9-.2-.9-.2Z"/>
        <path id="_x32_025" class="st0" d="M2209.5,748l1,.5v.8h-.7l-1.4.2.2-1,.9-.5Z"/>
        <path id="_x32_026" class="st0" d="M2190.9,756.3l-.4-.7-.7-.3v-.3l.5-.5,1.2-.8,1.9-1.8,1.9-.8.5.8v1.2l-1,1.5-.9.5-.2.5v.8l-1,.5-.7.7-.5.5-.7-.2.4-.5-.3-1Z"/>
        <path id="_x32_027" class="st0" d="M2194.6,761.3l-1-.2-.9-.2.5-1,1.5-1.3,1.4-1.2,3.1-1.5,2.7-1.2,2.2-1.3,1.4-.5.5,1-.5.7-.5.8-.7.8-.9.5-.5.5-1-.2-.8.3-.9.5-.9.7h-1s-1.4.6-1.4.6l-1.2,1.5-1.2.5Z"/>
        <path id="_x32_028" class="st0" d="M2189.7,763.4l-1.4,1.2-1.5,1.2-.4.5-1.5.8-2.9,1.7-2.5,1.5-1.4.7-.8-.5-.5-.7.2-1.3.5-1.3.7-.7.9-.7,1-.2.3.3.5.3.7-.3,1-.8,2,.2,4.1-3,1,.2v1Z"/>
        <path id="_x32_029" class="st0" d="M2172.8,771.7l.5-.2h1v.7s-.7.5-.7.5l-.5.3-.3-.2-.3-.5.3-.7Z"/>
        <path id="_x32_030" class="st0" d="M2171.4,776.8l-1,.8-.5.8-1.5,1.3-1.6,1-1.5,1.2-1,1-1.4.8-1.4,1.3-.9,1-.5.8-1,1-.7.8-1,.7-1.2,1.2-.7.7-1.5.8-1,.5-.3.3-1.6,1.2-.8.3-.9.7-1.4.8-2.4,1-.9.8h-.9s-.5-.4-.5-.4v-.3l.2-.7,1-.7,1.2-.5.9-.8,1.7-1,1.5-1.2,1.2-.8.9-.8,1.4-.8,1.2-.8,1-.7,1.2-1,.7-.5,1-.8,3.2-3,1.6-1.7,1.7-1.8,3.1-2.5.3-.3,1.6-1.9,1.2-.3.5.7.2.7-.4,1Z"/>
        <path id="_x32_031" class="st0" d="M2140.2,789.2l-.5.3-.7.2-.8-.4-.2-1.3,1.2-.2.7.2.4.5v.7Z"/>
        <path id="_x32_032" class="st0" d="M2138.5,791.3l.8.5.3.5-.3.5-.5.2-1.4-.7.2-1h.9Z"/>
        <path id="_x32_033" class="st0" d="M2142.2,793.3l-.3-.5v-.7l.5-.5,1.4.5.5,1,.2.4h-.5c0,.1-.7,0-.7,0l-1-.2Z"/>
        <path id="_x32_034" class="st0" d="M2137.5,793.8h.7s.5,1,.5,1l-.9.8-1.2.2-.2-.5v-.7c-.1,0,.2-.5.2-.5l.9-.3Z"/>
        <path id="_x32_035" class="st0" d="M2086.2,827.7l2,1.2.2-.5.2-2.2,1.2-1.5,1,.7.8.5,1.6-1.7,2-.3,3.1-1.5.5-.8.4-.5-.4-.3.4-.3-.5-.5.5-1,.7-.5h.7l1-.2.5.3,1.2-.3.9-1.2-.5-1v-.7l1.7-1,1.2-.3.5-.2.3.2.5.2.5.7h.7s.9-.5.9-.5l.8-.7,1-.5,1.7-1.2,2.3-1.2,2.2-1,2.2-1.3,2.5-1,2.5-1.3,3.6-1.8,2.4-2,2.7-1.3,1.9-2.7.5-.8,2.4-.3,1.4-1.2h1.2c0-.1.7.5.7.5l-1.4,1.8-1.4,1.5-1.7,1.7-2.4,1.7-2.7,1.8-4.3,1.8-4.4,2-2.5,1-1.9,1.2-2.1,1.2-3.9,2.2-4.3,3-3.7,2.5-4.6,2.5-2.9,1.8-3.1,1.8-3.6,2.3-2.4,2-.8.7-2.2,2-1.7,1.8-1.4.5-1.7,1.8-2,1.3-2.6,2.3-1.9,1.3-2.1,2.5-2.1,2.2-2.4,2.3-2.1,1.7-2.9,2.3-3.4,3.3-3.6,3-6.5,6-.5-1.7,3.8-3,1.2-1.3,1.2-1,1.5-1.5,1.4-1.3,1.9-1.5,1.5-1.5,1.9-1.7,1.7-2,2.2-2,1.5-1.8.9-1.3.3-1,.7-.5,1-.7,1.7-1,.7-.8.5-1.2.8-.7,1.2-.3,2.1-1.3,1.2-1.4,1-1,.9-1.5,1-1,.5-1.2,1.1-1.3,1.7-1.3Z"/>
        <path id="_x32_036" class="st0" d="M2096.8,820.6l.5.7-.9,1-1.2.5-.8-.8v-.5l.7-.5,1-.5.7.2Z"/>
        <path id="_x32_037" class="st0" d="M2059.6,852.4l-.7.8-.8.5-.9.8-1.2.2-.7-.3-1-.3-.3-.7.3-1.2.4-.7.7-.7,1.2-.7,1.4-.7.9-.3,1.4-.8,1-1.2.5-.8.5-.5h.9l.3.7-.2.5-.4.9-.5.7-.5.8-.5.7-.9,1-.9,1.3Z"/>
        <path id="_x32_038" class="st0" d="M2051.3,856.7l.4-.2h.8l.9.3.2,1-.7,1.5-1,.3h-1.2s-.3-.7-.3-.7v-.5l.7-.7-.2-.8.5-.3Z"/>
        <path id="_x32_039" class="st0" d="M2046.5,860.3l.7-.3.7.2.2,1.2-.3,1.2-.4.8-.5.5-.9.5h-1.9c0,.1-.5-.7-.5-.7l.2-.8.5-.8.4-.2.5-.3.3-.5,1-.7Z"/>
        <path id="_x32_040" class="st0" d="M2042.2,864.3l.5.2.2.5-.4,1.4-.3.3-.9-.4-.2-.3-.7-.8.9-.8h.8Z"/>
        <path id="_x32_041" class="st0" d="M2036.1,868.4l1.2-1,1.4-.7,1,.5.7.7.7,1.5-1,1.7-3,1-.5.3-.5-.2-.7-.2.2-1-.2-.3.2-.5.7-1.8Z"/>
        <path id="_x32_042" class="st0" d="M2046.3,869l-.3.7h-.5l-1,.2-.7-1,.5-.8.9-.5h.8s.3,1.5.3,1.5Z"/>
        <path id="_x32_043" class="st0" d="M2031.8,882.6l-.3-.7-.2-.7.2-.8v-1s-.3-1-.3-1l-.3-1.2-.2-1.2.3-.8.7-.7,1-.3,1,.8v1.2l.3,1,.5.2.9-.5,1.2-1.3,1-1,1.9-1.7,1,.5-.5,1-.9,1.2-2.1,2.2-2.1,2-1.2,1.5-2.1,1.3Z"/>
        <path id="_x32_044" class="st0" d="M2028.9,879.8l-1.4.7-.7-.4v-1.8h1l.9.2.3.5-.2.9Z"/>
        <path id="_x32_045" class="st0" d="M2025.7,886.2l-.8-.4-.3-1.2.3-.8.5-1,.8-.8.9-.3h.7l1,.5.2.7-.9.9-1,.8-.8.3v.4l.3.5-.9.5Z"/>
        <path id="_x32_046" class="st0" d="M2026.3,887.2l1-.7v1.5l-.9,1-1.4,1-2.1,2.3-.7,1.8-.5.5-.5.7-.8.7-.4.7-.2,1.2-.7,1.5-.5.2-.3-.5-.3-1.4v-1.2l-.3-.2-1,.2-.5-.2.3-.9.7-1.5.9-1.3.8-1,1.2-1.5,1.2-1.5,1-.3.5.2h1.2l1-.5,1.2-.8Z"/>
        <path id="_x32_047" class="st0" d="M2016.4,900.4l-.2.5-.5.2-.8-.7.5-.8.4-.3h.7l.3.5-.3.7Z"/>
        <path id="_x32_048" class="st0" d="M2012.2,901.7l.5-.2.8,1.2-1.2,1.7-2.2-.4-.5-.3.7-.7.5-.5,1.4-.8Z"/>
        <path id="_x32_049" class="st0" d="M2009.1,912.8l-.8.3-1,.3-1.2-.2-.9.3-1.4,1.5-.5,1.8-1.2,1-1.4-.2-.5-1.2.4-1,.7-1.2.9-1.2.5-1.2,1-.5,1.9-.3.7-1,.2-1.5,1-1.7,1.9-.5.8.3h.7l1-.7,1,.4-.5.8-1.2,2-.9,1.5-1.2,1.8Z"/>
        <path id="_x32_050" class="st0" d="M2003.2,924.8l-1.4.7-.5.2-.5-.7.5-1.8.9-1.5,1.4-1.3.7-.8,1.4-2,.9-1.5,1-.5.7.3-.2,1.2-.4.5-.7.8-.7.5-.5,1.2-.5,1-1,1.5-.3.2-.7,2.2Z"/>
        <path id="_x32_051" class="st0" d="M1999.4,920l-.7.7h-.3l-.8-.4-.4-.7.4-.5,1.2-.7v1.2l.7.4Z"/>
        <path id="_x32_052" class="st0" d="M1999.2,923.1l-.2,1.2-.7,1-1.7-.2-.3-1.5,1-.8,1-.7.8,1Z"/>
        <path id="_x32_053" class="st0" d="M1995.2,928.1l-1.7-1,.9-.7h.9l.5.7-.5,1Z"/>
        <path id="_x32_054" class="st0" d="M1983.4,967.4l-.7-.5-.3-.9.7-2.8.5-2,1-2.8.7-2.2.9-3,1.4-4.8v-.9l-1-.2-.7-.8,1-.7.9-.7,1.2-.5-1-.5-.7-.2-.7-.7.7-.7,1.4-.8,2.2-1.3.5-1.2,1.4-2.2,1.6-3.2,2.5-4.1,1.5-.3.9.7-1.2,1.8-1.4,1.9-1.5,2.3-2.1,4.3-1.4,2.6-1.4,3.5-.9,3.1-1.2,3.7-1.4,4.2-1.2,4.3-1.2,4-1,1.3Z"/>
        <path id="_x32_055" class="st0" d="M1961,948.6l.7.5.5.5.7,1.5-.2,1.7h-.9s-.5-.5-.5-.5l-.5-.5-.5-1.2.2-1.5.5-.5Z"/>
        <path id="_x32_056" class="st0" d="M1983.6,950.9l2-.2.2.5-.3,1-.9.5h-.7l-.2-.5v-1.3Z"/>
        <path id="_x32_059" class="st0" d="M1981.2,971.4l-1.4.5-1.4-.7,1.4-.3.9-.8.5,1.3Z"/>
        <path id="_x32_061" class="st0" d="M1963.5,1018l.5-.7.9-1,1.2-2.2.7-2.8.2-.8-1.4.2-.2-.2-.8-.2-1-.8-.7-.5,1.5-1.7,1-1.3,1.2-1.5h1.5s.9-.8.9-.8l.4-2,.3-1.5-.7-2-.2-1.7.2-1.9-.8-1.3.5-2v-2.3c-.1,0,0-5,0-5l-.5-4-.7-1.5,1-.8.3-.2,1.4-.8,1.6-1.2,1.9-1.2,1.4-1.3,1,.8v1l-.5,1.9.3,1h.9l.3-1,.9-1.8.7-.5.5.8.5,1.5-.7,2.7-.7,1.7-1.2,2-.9,2-.9,2.5-.9,1.7-.4,2.6-.2,2.3-.4,4.2-.4,3.2-1,2-1.7,3.2-.9,4.1-1.6,3.5-1.9,3-1.7,2.8v.3l-.2,1.5-.9,1.5-.9,1.2h-.7l-.7-1-.2-1.2.5-1.5.7-1.2.5-.3.7-1.2.2-.3Z"/>
        <path id="_x32_066" class="st0" d="M1956.8,1007.6l-.2,1.4-.3,1.5-.9,1.5-.5.7-1.4.7-.7-1.2.4-1.7.5-1.5,1-1.2.9.2,1.2-.3Z"/>
        <path id="_x32_067" class="st0" d="M1962.7,1013.8l.7-.5.9-.2.3.7v.9l-.7,1-.7.7-.9.8-.7-.3-.5-.9v-2.3c-.1,0,.5-.7.5-.7l1,.8Z"/>
        <path id="_x32_068" class="st0" d="M1957,1024.1l1,.5.2,1.5-.7.2-.5-.2-.5-.3-.5-.5.2-1,.9-.2Z"/>
        <path id="_x32_069" class="st0" d="M1949.2,1028.4l.2-1.7.5-1,.7-.8,1-.2.7.3-1.2,1.3.5,1.4-.8,1-1.2.5-.4-.8Z"/>
        <path id="_x32_070" class="st0" d="M1961.7,1026l.7,1.3-1,3.2-.2,2.2-.7,4-.4,3.8-.7,4-1,3.7-.2,2.3-.3,2-1.2.2-1.5-.8-1.4-.9-1-.3-1.2-.7-1.9-.7-1.7-.5-1.4-.5-.7-.3-1.3-1.2-1-.8-1-1.7,1-2.6,1.7-2.2,1.4-1,.9-1.4.7-1.2,1.2-.7.2-1.7.7-.8,1.9-.3,2-1.2,1.2.7v2.3l.3,1.7,1.3.8h1.4l.5-1.2-.2-1.7v-1.9l.2-2.3,1.7-3.2,1-.7Z"/>
        <path id="_x32_071" class="st0" d="M1954.3,1028.6l-.2,1-.7,1-.5-.7.2-.5-.5-.5v-.5l.9-.3.8.5Z"/>
        <path id="_x32_072" class="st0" d="M1826,1035.3l-2.1.6-1.7.8-3.9,1.3-4.1,1.7-5.1,1.8-4.2,1.7-2.9,1.7-2.3-.3.3-1,1.7-.5,1.9-.8,1-1,.5-1.7.7-1.8,2.7-1,2.1-.3h1.7c0-.1,3.2-.8,3.2-.8l2.5-1.2,5.1-.8,2.9-.2.5.7-.5,1.2Z"/>
        <path id="_x32_073" class="st0" d="M1801.1,1040v1.3s-1.6,1-1.6,1l-1.4.2-1.2.2-1.2.3-.8-.7v-.8l1.7-1,1.5-.2,1.9.2,1-.5Z"/>
        <path id="_x32_074" class="st0" d="M1785.8,1047.4l-.9-.7-.7-.5-.9.2-1,.3-1.7-.2-.4-.9.9-.4.7-.2,1.5-.5,3.4-.7,3.4-1.1,1.9-.2,1.2,1.2-.5,1.4-1,.8-1.7.5-2.5.5-1.7.5Z"/>
        <path id="_x32_076" class="st0" d="M1779.7,1051.2l-.9-.3.2-1,1-.9.7-.3,1-.3,1.4-.3.7.5-.5.7-.7.2-.9.2-1.2,1.3-.8.3Z"/>
      </g>
    </g>
  </g>
</svg>